<?xml version="1.0" standalone="yes"?>
<svg xmlns="http://www.w3.org/2000/svg" width="240" height="180">
<path style="fill:#f8e0c2; stroke:none;" d="M0 0L0 14C12.1658 8.28903 23.9702 6.25191 37 4.71451C43.9069 3.89955 53.2187 3.37212 58.2577 9.47377C60.7541 12.4966 60.5254 18.245 61 22L58 21L60 41L61 41C64.2988 35.511 77.0797 38.944 75.3071 45.7006C73.3837 53.032 57.2594 46.5637 60 59L75 62L73 68L82 74L81 78L83 78L82 85L83 85C83 81.0915 85.7204 78.3554 86 75C86.1123 73.6528 80.2754 57.2203 90 65C95.2 69.16 86.2216 74.2216 91 79L89 79L89 80L92 81L88 84L85 90L85 91L91 93L96 91L93 95L94 92L93 92C90.7449 94.4342 84.7135 96.8703 84 92L82 95C88.8999 97.4522 97.2223 100.222 98 90L104 89L98 85L113.277 55L108 25L113 25C113 21.0742 126.399 21.0948 130 21C132.887 30.8529 144.016 33.8959 153 36L142 27C146.663 21.1127 151.534 21.1865 158 24L157 27C159.449 30.9532 162.291 38.2547 159 42L160 54L156 52C155.525 55.6373 151.213 55.6625 148 56L150 52L146 44C148.231 41.9654 146.769 37.8804 144 40L143 40L140 37L146 41L145 46L137 43C139.318 55.6892 141.701 58.7143 129 66L126 94L125 94L124 89L123 89L125 97L126 97L127 94L127 97C133.363 95.2696 138.817 92.3637 143 99L144 97L145 97L145 100L146 100C146.506 95.0748 146.528 91.7792 143 88L143 87C144.347 85.5365 145.307 83.7173 146.688 82.2994C149.452 79.4631 154.702 79.556 155.593 84.0586C157.154 91.9498 150.979 103.289 165 100L161 105L161 106L164 106C164 114.065 164.798 119.013 169 126L165 125L165 126L168 127C168.821 131.142 172.009 132.417 176 133L176 134C166.216 138.953 157.174 148.914 156 160L155 160L154 158L154 162C149.357 166.063 154.859 170.257 157 174L160 173L160 175L174 175L173 180C193.458 176.008 218.984 180 240 180L240 131C227.347 131 211.359 136.29 200 130L201 134C196.959 133.84 186.961 136.207 184.921 131.866C183.412 128.654 188.148 125.427 189.587 122.961C194.588 114.391 195.168 99.5086 183 97C186.863 90.103 189.279 74.3523 185.81 67.0185C183.908 62.9962 179.499 61.1505 178.109 56.9059C176.419 51.7474 178.947 47.1157 178 42C187.092 38.5636 191.329 39.3315 201 41L200 45L204 41L222 40.0563L240 45L240 0L0 0z"/>
<path style="fill:#e0b062; stroke:none;" d="M0 18C6.13253 15.7316 15.3104 13.6977 19 8L26 11L31 8L33 10C39.3914 6.8195 43.9603 8.39767 46 15L47 15L46 12L48 18L45 17L45 24L45 25L50 27C44.3933 26.3873 37.3613 27.1991 33 31C36.3511 33.5653 44.318 43.3934 41 47L41 48C48.552 43.7806 37.9262 34.5918 48 31L50 48L54 48L57 45L57 41L53 42L54 39L53 31L57 39L59 43L60 43L58 21L61 22C60.7006 18.2063 60.9401 11.702 58.2577 8.76466C49.9664 -0.314682 26.6774 4.05754 17 7.93364C10.5833 10.5037 1.33669 9.59454 0 18z"/>
<path style="fill:#ba8e46; stroke:none;" d="M42 5L42 6C50.794 9.26483 57.7129 19.5701 53 29L54 30L55 28L58 30C57.2738 25.0645 54.5116 20.2487 58 16C55.8689 8.2093 49.8703 5.40395 42 5M21 7L22 8L21 7M32 7L33 8L32 7M19 8L1.6929 17.6273L4 33L10 24L7 17L11 19L10 16L12 18L21 10L19 18L24 18L23 21L27 22L27 17L35 20L29 28L36 26L36 28C28.7217 31.5571 29.3667 37.0981 28 44L32 49L30 48L36 53L32 50L34 44L42 49L43 46L33 31L43 25L44 25L50 27L49 24L45 25L45 24L48 24L45 17L48 18L46 12L47 15L46 15C45.1315 8.29924 38.4795 5.84372 33 10L32 10L31 8L26 11L19 8z"/>
<path style="fill:#95652c; stroke:none;" d="M19 10C16.7282 13.1566 14.2196 17.0749 10 16L11 19L7 17L10 24C8.4191 26.936 2.51748 31.8191 8 33L7 37L11 41L14 40L13 43L15 41L25 43L20 46L19 43L15 44L13 51L12 47L7 53L11 51L14 52L29 45L32 49L28 44L29 38L28 38L28 43L27 43L24 26L29 34L30 34L36 28L36 26L29 28L35 20L27 17L27 22L23 21L24 18L19 18L21 10L19 10M53 11C53.513 13.4751 53.6038 13.5746 56 13L53 11z"/>
<path style="fill:#e0b062; stroke:none;" d="M35 16L35 17L40 17C39.2577 13.4694 37.6779 14.4937 35 16z"/>
<path style="fill:#95652c; stroke:none;" d="M26 15L27 16L26 15M30 15L31 16L30 15z"/>
<path style="fill:#47260f; stroke:none;" d="M13 19L13 20L22 22C19.2382 18.4655 17.3183 17.7498 13 19z"/>
<path style="fill:#e0b062; stroke:none;" d="M41 18L41 20L43 20L43 18L41 18z"/>
<path style="fill:#95652c; stroke:none;" d="M3 19L3 21L5 21L3 19M16 19L17 20L16 19z"/>
<path style="fill:#e0b062; stroke:none;" d="M0 20L7 39L8 39L0 20z"/>
<path style="fill:#ba8e46; stroke:none;" d="M15 20L20 24L15 20z"/>
<path style="fill:#95652c; stroke:none;" d="M18 20L19 21L18 20z"/>
<path style="fill:#ba8e46; stroke:none;" d="M9.33333 21.6667L9.66667 22.3333L9.33333 21.6667z"/>
<path style="fill:#47260f; stroke:none;" d="M12 21L13 25L12 21z"/>
<path style="fill:#e0b062; stroke:none;" d="M17.3333 21.6667L17.6667 22.3333L17.3333 21.6667M113 25L108 25C108.762 33.7346 114.528 46.5491 112.767 55C110.807 64.4058 90.1313 81.0634 104 89C97.5477 77.5342 108.368 68.3236 113 57L117 59L115 40L111 40C111.087 32.6724 114.011 30.3824 121 29L120 26L117 28L123 24L122 27L128 24L121 41L126 37L137 42C133.977 40.6422 132.135 40.2407 130 43L122 50L128 67L140 60L140 59L131 63L129 52L131 48L139 52L140 52L137 43L145 46L146 41L140 37L143 40L144 40L145 38L146 46L147 47L148 47L149 47L149 44L150 44L151 44L153 49L151 55L148 55L148 56L152 53L153 53C154.476 55.5064 156.013 54.602 156 52L160 54L159 42C163.061 39.2784 160.225 29.8935 157 27L158 24C152.275 20.5371 145.419 20.481 142 27L153 36C143.483 32.4255 134.728 30.9502 130 21C126.061 21.1229 113.637 20.7364 113 25z"/>
<path style="fill:#95652c; stroke:none;" d="M42.6667 22.3333L43.3333 22.6667L42.6667 22.3333M3 23L4 24L3 23M40 23L41 24L40 23z"/>
<path style="fill:#ba8e46; stroke:none;" d="M151 23L153 25L153 23L151 23z"/>
<path style="fill:#47260f; stroke:none;" d="M22 24L23 25L22 24z"/>
<path style="fill:#95652c; stroke:none;" d="M37 24L37 27L41 27L41 26L37 24z"/>
<path style="fill:#ba8e46; stroke:none;" d="M117 28L120 26L121 29C113.36 29.8119 111.027 32.3974 111 40L115 40L117 59L113 57C109.515 62.3414 94.3792 83.7548 104 87L102 90L102 91L105 90L99 92L101 95L96 103L97 110L103 111L103 110L98 109L98 108C103.178 106.179 102.173 101.077 100 97L101 96L105 97L102 95L102 94L108 96L108 93L110 93L111 107L112 107L112 104L117 96L112 94L112 91L119 91L116 85L115 85L114 88L106.253 73.9846L114 58L115 58L119 62L121 56L129 66L122 50L125 47L118 50L119 42L125 46L126 46L130 43L137 42C134.502 37.0909 130.85 37.9636 126 37L121 41L128 24L122 27L123 24L117 28M147 24L147 26L149 26L149 24L147 24z"/>
<path style="fill:#95652c; stroke:none;" d="M4 25L4 27L6 27L6 25L4 25z"/>
<path style="fill:#ba8e46; stroke:none;" d="M18 25L18 28L19 28L18 25z"/>
<path style="fill:#95652c; stroke:none;" d="M43.3333 25.6667L43.6667 26.3333L43.3333 25.6667z"/>
<path style="fill:#47260f; stroke:none;" d="M24 26L27 43L28 43C28.0575 36.0516 30.236 30.7514 24 26z"/>
<path style="fill:#ba8e46; stroke:none;" d="M153 26L155 28L155 26L153 26M15 27L16 28L15 27z"/>
<path style="fill:#f8e0c2; stroke:none;" d="M0 28L0 63L1 63L2 58L7 57L8 60L13 60C11.3416 53.9674 16.4589 54.2023 19 50L4 55C12.1139 44.4698 8.4981 37.3604 0 28M49.6667 28.3333L50.3333 28.6667L49.6667 28.3333z"/>
<path style="fill:#95652c; stroke:none;" d="M55 28L56 29L55 28z"/>
<path style="fill:#ba8e46; stroke:none;" d="M148 28L148 29L158 36L148 28M45 29L46 30L45 29z"/>
<path style="fill:#f8e0c2; stroke:none;" d="M51 29L51 31L53 31L53 29L51 29z"/>
<path style="fill:#ba8e46; stroke:none;" d="M35 30L36 31L35 30M37 30L38 31L37 30z"/>
<path style="fill:#95652c; stroke:none;" d="M120 30C115.284 32.196 113.259 33.8211 112 39L113 39L120 30z"/>
<path style="fill:#ba8e46; stroke:none;" d="M43 34L48 32L43 34z"/>
<path style="fill:#f8e0c2; stroke:none;" d="M53 31L54 39L53 42C58.2831 39.8763 56.8832 35.445 55 31L53 31z"/>
<path style="fill:#ba8e46; stroke:none;" d="M58.6667 31.3333L59.3333 31.6667L58.6667 31.3333z"/>
<path style="fill:#95652c; stroke:none;" d="M125 31L126 32L125 31z"/>
<path style="fill:#e0b062; stroke:none;" d="M189 32L190 33L189 32z"/>
<path style="fill:#ba8e46; stroke:none;" d="M6 33L8 35L8 33L6 33z"/>
<path style="fill:#95652c; stroke:none;" d="M43 40L44 40L44 34L48 39L49 39L48 33C43.6381 33.728 43.1371 35.8242 43 40z"/>
<path style="fill:#ba8e46; stroke:none;" d="M117 33L116 35L117 33z"/>
<path style="fill:#e0b062; stroke:none;" d="M116 37L120 37L121 34L120 33L116 37z"/>
<path style="fill:#47260f; stroke:none;" d="M44 34L44 42C49.4363 40.6537 48.1537 36.3878 44 34z"/>
<path style="fill:#ba8e46; stroke:none;" d="M48.3333 34.6667L48.6667 35.3333L48.3333 34.6667z"/>
<path style="fill:#95652c; stroke:none;" d="M154.667 34.3333L155.333 34.6667L154.667 34.3333M28 35L29 36L28 35z"/>
<path style="fill:#ba8e46; stroke:none;" d="M42 35L43 36L42 35M57 35L58 36L57 35z"/>
<path style="fill:#f8e0c2; stroke:none;" d="M137 36L139 38L139 36L137 36z"/>
<path style="fill:#ba8e46; stroke:none;" d="M7 37L15 49L15 44L19 43L20 46L25 43L22 44C19.5551 41.1587 16.2533 41.6227 13 43L14 40L11 41L7 37M42.3333 37.6667L42.6667 38.3333L42.3333 37.6667M49 37L47 47L47 48L48 50L53 48L53 47L50 48L49 37z"/>
<path style="fill:#e0b062; stroke:none;" d="M64 37L65 38L64 37M178 42L178 60L179 60C178.375 45.4428 181.628 42.1465 196 43C194.785 45.7229 193.665 47.2666 197 48L195 51L204 55L205 55L204 51L208 54L209 54L210 48L216 49L213 60L215 69L203 67L203 68L205 69L202 71L206 71L202 73L205 76L203 88L210 88L207 83L211 81L213 82L214 82L214 81C212.313 79.149 213.063 78.314 215 77C213.806 80.5819 217.044 84.0109 213 83C213 91.7646 221.521 84.6303 223 85L222 82L227 79L227 77L222 72L225 72L223 64L226 65L227 58L228 58L226 52L224 52L223 56L222 56C221.944 51.2813 221.536 46.9147 216 47L217 42C227.745 42.5515 233.513 47.1168 236 57L231 63L229 62L230 67L232 67C237.186 59.828 239.999 53.877 240 45L222 39.6767L204 41L200 45L201 41C192.06 38.575 186.222 37.4518 178 42z"/>
<path style="fill:#ba8e46; stroke:none;" d="M23.3333 38.6667L23.6667 39.3333L23.3333 38.6667M58 38L56 44L57 44L58 42L61 43L61 42L58 38z"/>
<path style="fill:#e0b062; stroke:none;" d="M61 38L62 39L61 38z"/>
<path style="fill:#ba8e46; stroke:none;" d="M61 39L61 40C65.9151 38.9808 68.1419 40.3601 70 45L67 49L75 46C72.67 39.6925 67.3663 37.1407 61 39z"/>
<path style="fill:#e0b062; stroke:none;" d="M69 38L75 46L69 48L69 49C78.3054 47.7023 76.821 41.0963 69 38M115 38L115 39L118 39L115 38z"/>
<path style="fill:#ba8e46; stroke:none;" d="M123.333 38.6667L123.667 39.3333L123.333 38.6667z"/>
<path style="fill:#95652c; stroke:none;" d="M61 40L61 41C63.9498 40.0167 64.6217 39.5131 64 42L68 42L68 43L58 42L57 42L56 46L59 45L67 49L70 45C68.7362 39.8568 66.0035 38.5681 61 40z"/>
<path style="fill:#e0b062; stroke:none;" d="M8 40L9 41L8 40z"/>
<path style="fill:#ba8e46; stroke:none;" d="M43.3333 40.6667L43.6667 41.3333L43.3333 40.6667z"/>
<path style="fill:#47260f; stroke:none;" d="M61 44L68 43L68 42L64 42C64.0253 38.3041 61.3774 42.0144 61 44z"/>
<path style="fill:#e0b062; stroke:none;" d="M144 40L145 41L144 40z"/>
<path style="fill:#f8e0c2; stroke:none;" d="M150 40L151 41L150 40M156 40L157 41L156 40z"/>
<path style="fill:#e0b062; stroke:none;" d="M9 41L10 45L11 45L9 41z"/>
<path style="fill:#ba8e46; stroke:none;" d="M23 41L24 42L23 41M179 57L180 57C179.799 49.4916 181.162 44.7781 189 44C180.204 38.0238 177.443 50.4406 179 57M25 42L26 43L25 42M44 42L45 43L44 42z"/>
<path style="fill:#95652c; stroke:none;" d="M45 42L44 47L49 47L45 42z"/>
<path style="fill:#e0b062; stroke:none;" d="M47 42L48 43L47 42z"/>
<path style="fill:#95652c; stroke:none;" d="M119 42L118 50L122 49L119 42z"/>
<path style="fill:#e0b062; stroke:none;" d="M121.667 42.3333L122.333 42.6667L121.667 42.3333z"/>
<path style="fill:#95652c; stroke:none;" d="M125 42L126 43L125 42z"/>
<path style="fill:#f8e0c2; stroke:none;" d="M133.667 42.3333L134.333 42.6667L133.667 42.3333z"/>
<path style="fill:#ba8e46; stroke:none;" d="M192 42C189.299 48.5887 188.885 50.9741 193 57L200 54L195 58L194 63L196 61C199.069 63.7985 203.656 66.8265 207 63L208 63L201 66L201 69L200 69L200 66L187 71L187 72L186 83L187 83L188 81L198 88L200 86L200 85C189.663 83.2771 199.302 76.6416 196 74C200.08 74.2468 201.39 75.9742 201 80L205 76L202 73L206 71L202 71L203 68L203 67L212 68L211 66L212 66L215 69L213 60C216.921 57.3132 216.716 53.3583 216 49L210 48L209 54L208 54L204 51L205 55L204 55L195 51L197 48L194 47L196 43L192 42M217 42L216 47L222 49L219 44C229.594 48.6179 228.525 52.7989 230 63L231 63L236 57C234.978 46.3663 227.442 42.2444 217 42z"/>
<path style="fill:#e0b062; stroke:none;" d="M71 43L72 44L71 43z"/>
<path style="fill:#95652c; stroke:none;" d="M179 59L184 61L184 64L185 64L184 56L185 56L187 71L188 71L187 66L192 69L195 66C198.863 66.8441 207.03 67.5267 208 63L207 63L194 63L196 61L195 58L200 54L193 57C190.397 51.4731 188.815 49.8226 192 44L188 45C179.472 41.9575 179.674 53.1755 179 59M218 43L219 44L218 43M34 44L32 50C35.8476 51.4314 38.5877 51.6187 41 48L34 44z"/>
<path style="fill:#ba8e46; stroke:none;" d="M55 44L56 45L55 44z"/>
<path style="fill:#47260f; stroke:none;" d="M60 44L62 47L60 44M120 44L120 48L124 47L124 45L120 44z"/>
<path style="fill:#95652c; stroke:none;" d="M123 44L124 47L125 47L125 44L123 44z"/>
<path style="fill:#ba8e46; stroke:none;" d="M136 44L135 47L136 47L136 44M149 44L149 45L153 49L149 44M152.667 44.3333L153.333 44.6667L152.667 44.3333z"/>
<path style="fill:#95652c; stroke:none;" d="M219 44L229 60L230 60C230.976 50.8844 227.296 46.6199 219 44z"/>
<path style="fill:#e0b062; stroke:none;" d="M11 45L12 46L11 45z"/>
<path style="fill:#47260f; stroke:none;" d="M27 45L27 47L29 47L29 45L27 45z"/>
<path style="fill:#f8e0c2; stroke:none;" d="M43 45L44 46L43 45z"/>
<path style="fill:#47260f; stroke:none;" d="M58 45L42 53L49 49C44.3337 46.4007 40.1535 49.5537 36 52L41 59L43 55C48.9726 55.6764 64.8952 53.8563 58 45z"/>
<path style="fill:#f8e0c2; stroke:none;" d="M133 45L134 48L133 45z"/>
<path style="fill:#95652c; stroke:none;" d="M149.667 45.3333L150.333 45.6667L149.667 45.3333z"/>
<path style="fill:#47260f; stroke:none;" d="M183 45L181 54L182 55L189 45L183 45z"/>
<path style="fill:#e0b062; stroke:none;" d="M10 46L11 47L10 46z"/>
<path style="fill:#ba8e46; stroke:none;" d="M22 48L25 47L22 48M54 46L54 48L56 46L54 46z"/>
<path style="fill:#95652c; stroke:none;" d="M71 46L70 48L72 48L71 46z"/>
<path style="fill:#ba8e46; stroke:none;" d="M149 46L147 49L149 46z"/>
<path style="fill:#47260f; stroke:none;" d="M150 46L148 48L148 49L150 51L150 46z"/>
<path style="fill:#ba8e46; stroke:none;" d="M210 46L211 47L210 46z"/>
<path style="fill:#e0b062; stroke:none;" d="M9 47L8 49L9 47M23 47L24 48L23 47z"/>
<path style="fill:#f8e0c2; stroke:none;" d="M21 52L25 51L31 54L34 60L34 56L35 56L35 63L36 63L39 58L37 54L32 54C29.6549 48.4091 23.9116 44.2487 21 52z"/>
<path style="fill:#e0b062; stroke:none;" d="M25 47L26 48L25 47z"/>
<path style="fill:#ba8e46; stroke:none;" d="M27.6667 47.3333L28.3333 47.6667L27.6667 47.3333M43 47L44 48L43 47z"/>
<path style="fill:#95652c; stroke:none;" d="M123 47L124 48L123 47z"/>
<path style="fill:#f8e0c2; stroke:none;" d="M128 47L129 48L128 47z"/>
<path style="fill:#95652c; stroke:none;" d="M147 47L148 48L147 47M190 49L193 47L190 49z"/>
<path style="fill:#f8e0c2; stroke:none;" d="M202 47L203 48L202 47z"/>
<path style="fill:#ba8e46; stroke:none;" d="M215 47L218 49L218 48L215 47M9 48L10 49L9 48z"/>
<path style="fill:#47260f; stroke:none;" d="M11 48L12 49L11 48z"/>
<path style="fill:#ba8e46; stroke:none;" d="M18 48L18 49L21 49L18 48z"/>
<path style="fill:#e0b062; stroke:none;" d="M21 48L15 50L15 51L19 50L18 53C13.3517 53.201 11.5439 55.5648 13 60L8 60L7 57L2 58L0 65L4 63L2 72L4 75L8 75L7 87L8 87L8 85L9 85L11 89L8 90L9 93L6 94L7 98C3.55325 98.6118 7.05143 102.683 9.06481 103.787C13.0052 105.948 16.9612 105.241 21 104L20 107L21 107L22 105L26 109L24 103L21 104L20 95L17 96L15 91L18 90L18 89L15 88L18 84L25 85L30 82L32 89L33 89L35 85L32 86L32 81L33 84L37 83L35 80L35 79L38 72L37 72L37 77L36 77L33 71L33 70L37 71L40 56L39 56L36 63L35 63L35 56L34 56L34 60L31 54L25 51L21 52L21 48z"/>
<path style="fill:#95652c; stroke:none;" d="M42 48L43 49L42 48M51 48L52 49L51 48M53 48L54 49L53 48z"/>
<path style="fill:#ba8e46; stroke:none;" d="M60.6667 48.3333L61.3333 48.6667L60.6667 48.3333z"/>
<path style="fill:#47260f; stroke:none;" d="M62 48L62 49L65 49L62 48z"/>
<path style="fill:#f8e0c2; stroke:none;" d="M131 48L129 52L131 48z"/>
<path style="fill:#ba8e46; stroke:none;" d="M135 48L134 51L135 51L135 48z"/>
<path style="fill:#f8e0c2; stroke:none;" d="M205 49L205 50L209 49L205 49z"/>
<path style="fill:#ba8e46; stroke:none;" d="M8 49L6 54L10 54L10 53L7 53L8 49z"/>
<path style="fill:#47260f; stroke:none;" d="M12 49L14 51L14 49L12 49z"/>
<path style="fill:#ba8e46; stroke:none;" d="M15 49L16 50L15 49z"/>
<path style="fill:#e0b062; stroke:none;" d="M30 49L31 50L30 49z"/>
<path style="fill:#ba8e46; stroke:none;" d="M38 49L39 50L38 49z"/>
<path style="fill:#95652c; stroke:none;" d="M49.6667 49.3333L50.3333 49.6667L49.6667 49.3333M61.6667 49.3333L62.3333 49.6667L61.6667 49.3333z"/>
<path style="fill:#ba8e46; stroke:none;" d="M63 49L64 50L63 49z"/>
<path style="fill:#e0b062; stroke:none;" d="M64 49L64 50L67 50L64 49z"/>
<path style="fill:#95652c; stroke:none;" d="M135 49L133 50L132 54L136 55L134 57L139 57L131 57C137.832 64.6287 142.77 53.243 135 49z"/>
<path style="fill:#ba8e46; stroke:none;" d="M137 49L138 50L137 49z"/>
<path style="fill:#95652c; stroke:none;" d="M148 49L150 52L148 49z"/>
<path style="fill:#e0b062; stroke:none;" d="M7 50L8 51L7 50M31 50L31 54L32 54L33 52L36 55L31 50z"/>
<path style="fill:#95652c; stroke:none;" d="M46 50L47 51L46 50z"/>
<path style="fill:#e0b062; stroke:none;" d="M47 50L48 51L47 50z"/>
<path style="fill:#95652c; stroke:none;" d="M48 50L49 51L48 50z"/>
<path style="fill:#ba8e46; stroke:none;" d="M61 50L59 53L61 50z"/>
<path style="fill:#e0b062; stroke:none;" d="M62 50L63 51L62 50z"/>
<path style="fill:#ba8e46; stroke:none;" d="M132 50L133 51L132 50z"/>
<path style="fill:#47260f; stroke:none;" d="M136 50L137 51L136 50z"/>
<path style="fill:#ba8e46; stroke:none;" d="M138 50L139 51L138 50z"/>
<path style="fill:#95652c; stroke:none;" d="M150 50L151 51L150 50z"/>
<path style="fill:#ba8e46; stroke:none;" d="M217.333 50.6667L217.667 51.3333L217.333 50.6667M219.333 50.6667L219.667 51.3333L219.333 50.6667M222 50L222 56L223 56L226 51L222 50z"/>
<path style="fill:#e0b062; stroke:none;" d="M6 51L7 52L6 51z"/>
<path style="fill:#47260f; stroke:none;" d="M11.6667 51.3333L12.3333 51.6667L11.6667 51.3333z"/>
<path style="fill:#ba8e46; stroke:none;" d="M14 51L15 52L14 51z"/>
<path style="fill:#e0b062; stroke:none;" d="M27.6667 51.3333L28.3333 51.6667L27.6667 51.3333z"/>
<path style="fill:#95652c; stroke:none;" d="M44 51L42 52L42 53L44 51z"/>
<path style="fill:#ba8e46; stroke:none;" d="M45.6667 51.3333L46.3333 51.6667L45.6667 51.3333z"/>
<path style="fill:#e0b062; stroke:none;" d="M61 51L62 52L61 51z"/>
<path style="fill:#ba8e46; stroke:none;" d="M131 51L132 52L131 51z"/>
<path style="fill:#e0b062; stroke:none;" d="M148 51L149 52L148 51z"/>
<path style="fill:#ba8e46; stroke:none;" d="M12 52L13 53L12 52M43 52L44 53L43 52z"/>
<path style="fill:#e0b062; stroke:none;" d="M60 52L61 53L60 52M62.6667 52.3333L63.3333 52.6667L62.6667 52.3333z"/>
<path style="fill:#47260f; stroke:none;" d="M131 52C131.379 56.9807 134.426 61.3204 139 57L131 52M134.333 52.6667L134.667 53.3333L134.333 52.6667z"/>
<path style="fill:#ba8e46; stroke:none;" d="M139 52L139 55L140 55L139 52z"/>
<path style="fill:#e0b062; stroke:none;" d="M160 54C161.397 58.4071 163.982 58.7198 168 57L166 52L160 54z"/>
<path style="fill:#ba8e46; stroke:none;" d="M226.333 52.6667L226.667 53.3333L226.333 52.6667z"/>
<path style="fill:#e0b062; stroke:none;" d="M4 54L4 55L8 55L4 54M10 53L11 54L10 53z"/>
<path style="fill:#95652c; stroke:none;" d="M36 53L36 54L39 55L36 53M48 53L48 54L51 54L48 53M53.6667 53.3333L54.3333 53.6667L53.6667 53.3333M58 53L59 54L58 53z"/>
<path style="fill:#e0b062; stroke:none;" d="M59 53L60 54L59 53z"/>
<path style="fill:#ba8e46; stroke:none;" d="M130.333 53.6667L130.667 54.3333L130.333 53.6667z"/>
<path style="fill:#e0b062; stroke:none;" d="M140 53L140 58L141 58L140 53M142 53L143 54L142 53z"/>
<path style="fill:#ba8e46; stroke:none;" d="M150.333 53.6667L150.667 54.3333L150.333 53.6667M152.333 53.6667L152.667 54.3333L152.333 53.6667z"/>
<path style="fill:#e0b062; stroke:none;" d="M211 53L214 56L211 53z"/>
<path style="fill:#f8e0c2; stroke:none;" d="M23 54L27 56L27 55L23 54z"/>
<path style="fill:#e0b062; stroke:none;" d="M32 54L33 55L32 54M37 54L36 56L38 56L37 54M48 54L48 57L43 57L44 60L41 61L41 66L43 66L44 75L49 78L50 74L55 76L51 84L56 83L56 89L64 89L64 92C66.8796 89.9036 67.0604 87.9774 64 86L64 81L70 81L72 84L73 87L73 88L70 88L70 89L76 91L76 92L72 95L73 92L69 91L68 91L71 94L71 95L69 96L78 98L68 105C64.3561 105.17 63.3715 106.697 62 110L61 110L62 105L61 105L61 108L58 108L57 108L59 97C52.3278 90.3756 49.8838 95.695 42 97C33.7451 112.749 44.0413 123.923 46 139L54 137L54 142L50 140L51 145L50 145L48 140L47 140L56 154C46.7776 149.952 37.7865 152.897 28 153.255C20.5936 153.525 13.3131 152.259 6 154L6 153C20.7754 147.824 18.6003 133.088 8 124L9 127L0 120C0.776295 129.378 3.03055 131.828 9 139L10 139L5 132C10.1397 135.141 12.1493 139.023 11 145L10 142L9 142C5.06056 144.956 3.5445 140.791 0 139L0 155L4 154L4 155L0 156L0 157C35.0914 156.722 67.6548 166.645 102 172.022C109.552 173.205 118.457 174.93 126.015 175.56C130.298 175.918 134.747 173.835 139 174.488C142.544 175.031 144.727 178.213 148 179.397C152.93 181.181 159.806 180 165 180L165 179L163 179L163 178L173 180L174 175L160 175L160 173L157 174L152 169L153 173L109 168L109 167C117.529 167 126.027 166.754 133.778 162.806C135.956 161.696 139.564 156.775 141 158L142 158C141.995 151.854 141.28 146.7 137 142C142.949 135.742 154.768 116.898 144 112L145 109L144 108L142 108L141 109C141.35 117.544 133.897 127.563 130 135L139 139L128 140L128 139L132 139L131 136L130 136L131 138L130 138L125 134L125 132L129 130L129 129L124 129C128.196 127.046 137.662 124.126 134 118C135.86 116.14 135.566 115.551 133 115L133 101L145 107L147 105L150 111L151 111L152 108L147 105L147 104C149.34 101.503 150.888 98.5669 148 96C149.402 91.9707 148.84 89.9812 145 88L146 83L145 83L143 87L143 88L146 100L145 100L145 97L144 97L143 99C139.862 91.5126 132.959 94.815 127 97L127 94L126 97L125 97L123 89L124 89L125 94L126 94L127 86C123.921 86.2979 121.501 82.8645 121 87L120 87L120 84L116 84L119 91L112 91L112 94L117 96C112.331 106.949 108.621 110.586 97 110L96 103L99 104L101 95L99 92L102 91L102 90L98 90C96.3931 100.32 86.4689 97.8251 81 92C85.57 90.7974 87.6256 88.7494 88 84C90.7934 84.0669 92.9119 80.7783 89 80L89 79L91 78L90 73L86 80L85 78L84 78L83 85L82 85L81 78L82 74L73 68L75 62L60 59L59 54L48 54z"/>
<path style="fill:#ba8e46; stroke:none;" d="M49.6667 54.3333L50.3333 54.6667L49.6667 54.3333z"/>
<path style="fill:#95652c; stroke:none;" d="M201 54L201 58L203 54L201 54z"/>
<path style="fill:#ba8e46; stroke:none;" d="M227 54L228 55L227 54M38 55L39 56L38 55z"/>
<path style="fill:#95652c; stroke:none;" d="M43 55L43 56L47 56L47 55L43 55z"/>
<path style="fill:#f8e0c2; stroke:none;" d="M48 62L58 59L57 55C51.3922 55.4498 50.1442 57.073 48 62z"/>
<path style="fill:#95652c; stroke:none;" d="M130 55L131 56L130 55z"/>
<path style="fill:#ba8e46; stroke:none;" d="M134 55L135 56L134 55z"/>
<path style="fill:#47260f; stroke:none;" d="M135 55L136 56L135 55z"/>
<path style="fill:#ba8e46; stroke:none;" d="M228 55L228 59L229 59L228 55z"/>
<path style="fill:#f8e0c2; stroke:none;" d="M239 55L232 67L230 67L226 56L226 65L223 64L225 72L222 72L227 77L225 73L240 76L239 55z"/>
<path style="fill:#e0b062; stroke:none;" d="M32 56L33 57L32 56z"/>
<path style="fill:#ba8e46; stroke:none;" d="M43 56L44 57L43 56M46.6667 56.3333L47.3333 56.6667L46.6667 56.3333z"/>
<path style="fill:#95652c; stroke:none;" d="M121 56L119 62L115 58L114 58C111.308 63.789 104.433 68.6191 106.322 75.8958C107.464 80.2939 112.013 82.1536 113 87L122 78L114 85L113 80L115 78L119 79C118.686 76.2552 116.862 73.4184 120 73L120 72L118 71C120.694 65.9613 118.762 63.6622 126 64L124 66L124 71L125 71L125 68L129 69L121 56z"/>
<path style="fill:#ba8e46; stroke:none;" d="M130 56L131 57L130 56z"/>
<path style="fill:#47260f; stroke:none;" d="M136 56L137 57L136 56M184 56L187 65L184 56z"/>
<path style="fill:#ba8e46; stroke:none;" d="M13 59L18 58L13 59z"/>
<path style="fill:#95652c; stroke:none;" d="M42 57L43 58L42 57z"/>
<path style="fill:#ba8e46; stroke:none;" d="M44.6667 57.3333L45.3333 57.6667L44.6667 57.3333z"/>
<path style="fill:#47260f; stroke:none;" d="M190 57L190 60L191 60L190 57z"/>
<path style="fill:#e0b062; stroke:none;" d="M198.333 57.6667L198.667 58.3333L198.333 57.6667M213.333 57.6667L213.667 58.3333L213.333 57.6667z"/>
<path style="fill:#ba8e46; stroke:none;" d="M39 58L39 61L40 61L39 58z"/>
<path style="fill:#95652c; stroke:none;" d="M40 58L40 62L41 62L40 58z"/>
<path style="fill:#ba8e46; stroke:none;" d="M41 61L44 58L41 61z"/>
<path style="fill:#f8e0c2; stroke:none;" d="M47 58L48 59L47 58z"/>
<path style="fill:#e0b062; stroke:none;" d="M71 58L72 59L71 58z"/>
<path style="fill:#ba8e46; stroke:none;" d="M131 58L131 63L135 61L135 60L131 58M139 58L140 59L139 58z"/>
<path style="fill:#95652c; stroke:none;" d="M199 58L200 59L199 58z"/>
<path style="fill:#e0b062; stroke:none;" d="M204 58L204 61L205 61L204 58M208 58L207 62L208 62L208 58z"/>
<path style="fill:#ba8e46; stroke:none;" d="M179 59L180 60L179 59z"/>
<path style="fill:#95652c; stroke:none;" d="M202 59L203 60L202 59z"/>
<path style="fill:#e0b062; stroke:none;" d="M228.333 59.6667L228.667 60.3333L228.333 59.6667z"/>
<path style="fill:#ba8e46; stroke:none;" d="M15 60L18 62L15 60z"/>
<path style="fill:#e0b062; stroke:none;" d="M51 60L52 61L51 60z"/>
<path style="fill:#f8e0c2; stroke:none;" d="M59 60L58 66L61 72L67 72L63 71L60 64L60 62L63 61L59 60z"/>
<path style="fill:#ba8e46; stroke:none;" d="M180 60L183 62L183 61L180 60z"/>
<path style="fill:#47260f; stroke:none;" d="M181 60L182 61L181 60z"/>
<path style="fill:#e0b062; stroke:none;" d="M210 60L212 62L212 60L210 60z"/>
<path style="fill:#f8e0c2; stroke:none;" d="M30 61L32 65L36 65L36 64L34 61L30 61z"/>
<path style="fill:#e0b062; stroke:none;" d="M180 61L181 62L180 61z"/>
<path style="fill:#47260f; stroke:none;" d="M183 61L184 62L183 61M188 61L189 62L188 61z"/>
<path style="fill:#ba8e46; stroke:none;" d="M192.333 61.6667L192.667 62.3333L192.333 61.6667z"/>
<path style="fill:#95652c; stroke:none;" d="M199 61L200 62L199 61M205 61L204 64L205 61z"/>
<path style="fill:#ba8e46; stroke:none;" d="M19 62L25 65L19 62M39 62L41 65L42 64L41 62L39 62M2 63C-0.633125 68.1273 -2.17587 78.0707 6 77L5 88L8 88L8 89L2 92L6 98L7 98L6 94L9 93L8 90L11 89L9 85L8 85L8 87L7 87C9.3656 82.4889 9.38542 79.8407 8 75L4 75C4.57459 72.6038 4.47512 72.513 2 72L4 63L2 63z"/>
<path style="fill:#47260f; stroke:none;" d="M116.667 63.3333L117.333 63.6667L116.667 63.3333M120 72L120 73L117 74L119 79L115 78L113 80L114 85C117.621 82.4475 130.496 72.2152 125 68L125 71L124 71L126 64C120.874 63.4615 113.702 67.9974 120 72z"/>
<path style="fill:#e0b062; stroke:none;" d="M199 63L200 64L199 63M209 63L209 65L211 65L209 63z"/>
<path style="fill:#ba8e46; stroke:none;" d="M216 63L218 70L220 66L217 67L216 63M7 64L8 65L7 64z"/>
<path style="fill:#95652c; stroke:none;" d="M39 64L37 69L39 64z"/>
<path style="fill:#f8e0c2; stroke:none;" d="M47 64L48 65L47 64M69 64L70 65L69 64z"/>
<path style="fill:#ba8e46; stroke:none;" d="M83 66L86 65L83 66z"/>
<path style="fill:#e0b062; stroke:none;" d="M86 64L86 65L89 65L86 64M184 64L185 65L184 64z"/>
<path style="fill:#f8e0c2; stroke:none;" d="M221.333 64.6667L221.667 65.3333L221.333 64.6667z"/>
<path style="fill:#ba8e46; stroke:none;" d="M26 65L28 67L28 65L26 65z"/>
<path style="fill:#f8e0c2; stroke:none;" d="M38 65L39 66L38 65z"/>
<path style="fill:#ba8e46; stroke:none;" d="M66 66L66 67L71 68C71.5327 64.7724 68.34 65.3363 66 66z"/>
<path style="fill:#95652c; stroke:none;" d="M83 66L85 78C89.5101 73.3583 93.5904 63.2034 83 66z"/>
<path style="fill:#ba8e46; stroke:none;" d="M89 65L91 67L89 65z"/>
<path style="fill:#e0b062; stroke:none;" d="M90 65L91 66L90 65M185 65L186 66L185 65z"/>
<path style="fill:#47260f; stroke:none;" d="M40 66L33 95L37 104L38 104C39.8119 97.8996 43.8665 93.6185 49 90L40 66z"/>
<path style="fill:#ba8e46; stroke:none;" d="M41 66L41 68L43 68L43 66L41 66z"/>
<path style="fill:#47260f; stroke:none;" d="M67 66L67 71L71 66L67 66M187 66L188 71L193 68L193 67L187 66M195.667 66.3333L196.333 66.6667L195.667 66.3333z"/>
<path style="fill:#e0b062; stroke:none;" d="M200 66L199 67L199 68L200 69L201 69L202 68L202 67L200 66z"/>
<path style="fill:#95652c; stroke:none;" d="M208 66L209 67L208 66M211 66L213 68L213 66L211 66z"/>
<path style="fill:#ba8e46; stroke:none;" d="M4.66667 67.3333L5.33333 67.6667L4.66667 67.3333M7 67L8 68L7 67M10 67L10 69L12 67L10 67z"/>
<path style="fill:#f8e0c2; stroke:none;" d="M36 67L37 68L36 67z"/>
<path style="fill:#95652c; stroke:none;" d="M66.3333 67.6667L66.6667 68.3333L66.3333 67.6667z"/>
<path style="fill:#ba8e46; stroke:none;" d="M83 67L84 68L83 67z"/>
<path style="fill:#e0b062; stroke:none;" d="M91 67L92 68L91 67z"/>
<path style="fill:#ba8e46; stroke:none;" d="M128 67L129 68L128 67z"/>
<path style="fill:#95652c; stroke:none;" d="M219 67L220 70L221 70L219 67M41.3333 68.6667L41.6667 69.3333L41.3333 68.6667z"/>
<path style="fill:#ba8e46; stroke:none;" d="M53 68L54 69L53 68z"/>
<path style="fill:#e0b062; stroke:none;" d="M83 68L84 69L83 68z"/>
<path style="fill:#47260f; stroke:none;" d="M84.3333 68.6667L84.6667 69.3333L84.3333 68.6667z"/>
<path style="fill:#ba8e46; stroke:none;" d="M91.3333 68.6667L91.6667 69.3333L91.3333 68.6667z"/>
<path style="fill:#e0b062; stroke:none;" d="M129 68L130 69L129 68M186 68L187 69L186 68M196 68L197 69L196 68z"/>
<path style="fill:#95652c; stroke:none;" d="M216 68L217 69L216 68z"/>
<path style="fill:#47260f; stroke:none;" d="M219 68L218 72L219 72L219 68z"/>
<path style="fill:#e0b062; stroke:none;" d="M223 68L224 69L223 68M0.333333 69.6667L0.666667 70.3333L0.333333 69.6667z"/>
<path style="fill:#ba8e46; stroke:none;" d="M42 69L45 74L42 69z"/>
<path style="fill:#95652c; stroke:none;" d="M69 69L68 71L69 69z"/>
<path style="fill:#f8e0c2; stroke:none;" d="M70 69L71 70L70 69z"/>
<path style="fill:#47260f; stroke:none;" d="M87 69L86 73L90 69L87 69z"/>
<path style="fill:#ba8e46; stroke:none;" d="M128 69L129 70L128 69z"/>
<path style="fill:#e0b062; stroke:none;" d="M135 69L133 72L131 71L130 71L130 72C132.481 72.1284 135.517 72.0039 135 69z"/>
<path style="fill:#95652c; stroke:none;" d="M190 69L189 71L191 71L190 69z"/>
<path style="fill:#f8e0c2; stroke:none;" d="M31 70L32 71L31 70M33 70L33 71L36 77L37 77C36.8796 73.3084 36.6867 71.2226 33 70z"/>
<path style="fill:#ba8e46; stroke:none;" d="M66 70L67 71L66 70M69 70L70 71L69 70z"/>
<path style="fill:#95652c; stroke:none;" d="M127 70L128 71L127 70z"/>
<path style="fill:#e0b062; stroke:none;" d="M128 70L121 80L128 81L128 70M197 70L198 71L197 70z"/>
<path style="fill:#f8e0c2; stroke:none;" d="M216 70L217 71L216 70z"/>
<path style="fill:#95652c; stroke:none;" d="M217 70L216 73L220 71L217 70z"/>
<path style="fill:#ba8e46; stroke:none;" d="M220 70L220 73L221 73L220 70z"/>
<path style="fill:#95652c; stroke:none;" d="M37 71L38 72L37 71M42.3333 71.6667L42.6667 72.3333L42.3333 71.6667z"/>
<path style="fill:#e0b062; stroke:none;" d="M64 71L65 72L64 71z"/>
<path style="fill:#ba8e46; stroke:none;" d="M67 71L69 73L67 71z"/>
<path style="fill:#e0b062; stroke:none;" d="M68 71L69 72L68 71z"/>
<path style="fill:#f8e0c2; stroke:none;" d="M69 71L70 72L69 71z"/>
<path style="fill:#e0b062; stroke:none;" d="M84 71L85 72L84 71M90 71L91 72L90 71z"/>
<path style="fill:#ba8e46; stroke:none;" d="M127 71L128 72L127 71M7 72L8 73L7 72z"/>
<path style="fill:#f8e0c2; stroke:none;" d="M32 72L33 73L32 72z"/>
<path style="fill:#ba8e46; stroke:none;" d="M89 72L90 73L89 72z"/>
<path style="fill:#47260f; stroke:none;" d="M116 72L117 73L116 72z"/>
<path style="fill:#ba8e46; stroke:none;" d="M126 72L127 73L126 72z"/>
<path style="fill:#e0b062; stroke:none;" d="M188 72L189 73L188 72M196 72L197 73L196 72M230 72L225 73C226.681 75.2408 229.503 74.9059 230 72z"/>
<path style="fill:#ba8e46; stroke:none;" d="M231 72L231 73L239 78L231 72z"/>
<path style="fill:#e0b062; stroke:none;" d="M233 72L234 73L233 72z"/>
<path style="fill:#f8e0c2; stroke:none;" d="M34 73L35 74L34 73z"/>
<path style="fill:#ba8e46; stroke:none;" d="M67 73L66 81C68.6872 78.3386 69.1422 76.2095 67 73z"/>
<path style="fill:#e0b062; stroke:none;" d="M82 73L83 74L82 73M85 73L86 74L85 73z"/>
<path style="fill:#95652c; stroke:none;" d="M125 73L126 74L125 73M198 73L200 75L201 85L196 78L195 78C195.301 81.9519 196.118 83.8224 200 85L200 86L198 88L202 87C201.63 81.4729 203.086 76.468 198 73z"/>
<path style="fill:#e0b062; stroke:none;" d="M200 73L201 74L200 73z"/>
<path style="fill:#f8e0c2; stroke:none;" d="M213 73L214 74L213 73z"/>
<path style="fill:#ba8e46; stroke:none;" d="M216 73L217 76L219 76L220 73L216 73z"/>
<path style="fill:#95652c; stroke:none;" d="M228 76L233 76L235 83L236 83L236 79L239 80C236.716 75.5054 232.253 71.6158 228 76z"/>
<path style="fill:#e0b062; stroke:none;" d="M234 73L235 74L234 73z"/>
<path style="fill:#95652c; stroke:none;" d="M43.3333 74.6667L43.6667 75.3333L43.3333 74.6667z"/>
<path style="fill:#ba8e46; stroke:none;" d="M50 74L49 78L44 75L50 81C48.3777 84.4914 48.5647 86.0846 52 88L39 103L40 103L42 97C47.2777 97.1113 57.1887 88.676 58 99L61 94L68 93L64 92L64 89L56 89L56 83L51 84L55 76L50 74M87 74L88 75L87 74z"/>
<path style="fill:#95652c; stroke:none;" d="M124 74L125 75L124 74z"/>
<path style="fill:#ba8e46; stroke:none;" d="M126.333 74.6667L126.667 75.3333L126.333 74.6667z"/>
<path style="fill:#e0b062; stroke:none;" d="M187 74L187 77L188 77L187 74M194.333 74.6667L194.667 75.3333L194.333 74.6667M196.667 74.3333L197.333 74.6667L196.667 74.3333z"/>
<path style="fill:#f8e0c2; stroke:none;" d="M216 74L217 75L216 74z"/>
<path style="fill:#ba8e46; stroke:none;" d="M229 74L230 75L229 74z"/>
<path style="fill:#e0b062; stroke:none;" d="M236 74L237 75L236 74M85 75L86 76L85 75z"/>
<path style="fill:#95652c; stroke:none;" d="M123 75L124 76L123 75z"/>
<path style="fill:#47260f; stroke:none;" d="M201 85L200 75C194.824 78.1757 195.635 82.7231 201 85z"/>
<path style="fill:#ba8e46; stroke:none;" d="M227 75L227 78L228 78L227 75z"/>
<path style="fill:#e0b062; stroke:none;" d="M237 75L239 79L240 79L237 75z"/>
<path style="fill:#ba8e46; stroke:none;" d="M85 76L86 77L85 76z"/>
<path style="fill:#47260f; stroke:none;" d="M116 76L117 77L116 76z"/>
<path style="fill:#95652c; stroke:none;" d="M196 76L197 77L196 76z"/>
<path style="fill:#47260f; stroke:none;" d="M228 76L221 91L225 92L218 106C216.137 89.0842 207.163 91.1246 194 87L196 93C190.591 91.853 186.569 91.6041 184 97C192.937 100.177 192.472 108.711 196 116L197 116C197.288 112.228 199.192 108.241 202 113L207 116L207 111L208 111L208 121L205 120L203 123L197 119L197 126L224 131L218 123L223 122L225 115C218.789 116.035 220.69 109.172 224 110L222 105L230 100L227 99L226 92L230 94L227 82L235 82L235 81L233 76L228 76z"/>
<path style="fill:#e0b062; stroke:none;" d="M0 77L0 85L4 84L4 87L5 87L6 77L0 77z"/>
<path style="fill:#95652c; stroke:none;" d="M37 77L38 78L37 77M44 77L46 81L47 81L44 77z"/>
<path style="fill:#e0b062; stroke:none;" d="M51 77L52 78L51 77z"/>
<path style="fill:#ba8e46; stroke:none;" d="M86 77L87 78L86 77M112 77L113 78L112 77M122 77L123 78L122 77z"/>
<path style="fill:#f8e0c2; stroke:none;" d="M210 77L211 78L210 77M213 77C212.069 79.7918 211.123 80.4246 214 81L214 82L211 81L207 83C208.755 86.634 211.786 87.3165 213 83L215 77L213 77M224.333 77.6667L224.667 78.3333L224.333 77.6667z"/>
<path style="fill:#ba8e46; stroke:none;" d="M36 78L37 81L36 78M85.3333 78.6667L85.6667 79.3333L85.3333 78.6667z"/>
<path style="fill:#e0b062; stroke:none;" d="M136 90L137 80L136 83C141.39 75.098 121.541 84.8702 136 90M186.333 78.6667L186.667 79.3333L186.333 78.6667z"/>
<path style="fill:#95652c; stroke:none;" d="M227 78L228 79L227 78z"/>
<path style="fill:#47260f; stroke:none;" d="M235 78L236 79L235 78z"/>
<path style="fill:#ba8e46; stroke:none;" d="M122 79L123 80L122 79M125 79L126 80L125 79z"/>
<path style="fill:#e0b062; stroke:none;" d="M166 79L168 82L166 79z"/>
<path style="fill:#95652c; stroke:none;" d="M167 79L168 80L167 79z"/>
<path style="fill:#e0b062; stroke:none;" d="M168.667 79.3333L169.333 79.6667L168.667 79.3333z"/>
<path style="fill:#ba8e46; stroke:none;" d="M206 79L207 80L206 79z"/>
<path style="fill:#f8e0c2; stroke:none;" d="M225 79L224 82L225 82L225 79z"/>
<path style="fill:#ba8e46; stroke:none;" d="M226 79L227 80L226 79M236 79L239 84L238 79L236 79M239 79L240 80L239 79z"/>
<path style="fill:#f8e0c2; stroke:none;" d="M2 80L3 81L2 80z"/>
<path style="fill:#ba8e46; stroke:none;" d="M72 80L73 81L72 80z"/>
<path style="fill:#95652c; stroke:none;" d="M107.667 80.3333L108.333 80.6667L107.667 80.3333z"/>
<path style="fill:#ba8e46; stroke:none;" d="M120 80L117 83L117 84L121 85L122 80L120 80M123 80L124 81L123 80M135 80L136 84L135 80z"/>
<path style="fill:#95652c; stroke:none;" d="M136 80L135 83L136 80z"/>
<path style="fill:#e0b062; stroke:none;" d="M147 80L146 82L147 80z"/>
<path style="fill:#ba8e46; stroke:none;" d="M148 80L149 81L148 80z"/>
<path style="fill:#95652c; stroke:none;" d="M147 81L149 84C152.838 84.5061 152.974 86.5911 152 90C157.169 84.9336 153.748 79.7585 147 81z"/>
<path style="fill:#ba8e46; stroke:none;" d="M152 80L152 81L155 82L152 80z"/>
<path style="fill:#e0b062; stroke:none;" d="M154 80L155 81L154 80z"/>
<path style="fill:#47260f; stroke:none;" d="M167.667 80.3333L168.333 80.6667L167.667 80.3333z"/>
<path style="fill:#ba8e46; stroke:none;" d="M169 80L170 81L169 80z"/>
<path style="fill:#e0b062; stroke:none;" d="M194 80L195 81L194 80z"/>
<path style="fill:#f8e0c2; stroke:none;" d="M208 80L209 81L208 80M221 80L222 81L221 80z"/>
<path style="fill:#ba8e46; stroke:none;" d="M225 80L226 81L225 80z"/>
<path style="fill:#e0b062; stroke:none;" d="M237 81L239 84L233 83L233 84L235 89L239 89L236 98L236 99C242.712 96.7723 239.605 85.7427 240 80L237 81z"/>
<path style="fill:#ba8e46; stroke:none;" d="M32 81L32 86L35 87L36 87L37 83L32 81z"/>
<path style="fill:#95652c; stroke:none;" d="M37.3333 81.6667L37.6667 82.3333L37.3333 81.6667M47 81L48 83L49 83L50 81L47 81z"/>
<path style="fill:#ba8e46; stroke:none;" d="M64 81C64.8034 84.6728 67.1559 83.332 70 82L70 81L64 81M74 81L79 86L74 81z"/>
<path style="fill:#95652c; stroke:none;" d="M120 84L126 86C126.18 84.3973 125.832 80.3019 124 83C121.815 81.7024 121.307 81.7887 120 84z"/>
<path style="fill:#47260f; stroke:none;" d="M123.333 81.6667L123.667 82.3333L123.333 81.6667z"/>
<path style="fill:#ba8e46; stroke:none;" d="M125.667 81.3333L126.333 81.6667L125.667 81.3333z"/>
<path style="fill:#e0b062; stroke:none;" d="M155 81L155 88L156 88L155 81z"/>
<path style="fill:#95652c; stroke:none;" d="M168.333 81.6667L168.667 82.3333L168.333 81.6667z"/>
<path style="fill:#e0b062; stroke:none;" d="M169.333 81.6667L169.667 82.3333L169.333 81.6667z"/>
<path style="fill:#95652c; stroke:none;" d="M187 81L186 84L193 88L190 87L191 89L190 89L186 88L186 92L196 93C194.741 87.6889 191.581 83.8833 187 81z"/>
<path style="fill:#ba8e46; stroke:none;" d="M202 81L203 88L202 81z"/>
<path style="fill:#95652c; stroke:none;" d="M225 81L226 82L225 81M227 82L230 94L226 92L227 99L230 100L222 105L224 110C219.498 110.571 220.413 115.446 225 115L223 122L218 123L226 131L226 129L229 130C228.247 126.505 226.655 127.336 224 129L223 126L227 123L228 126L229 126L233 112L231 114L230 114L228 111L236 110L233 109L230 103L230 101L236 96L236 95C232.479 93.9246 231.68 92.6606 232 89L229 88L229 87L232 82L227 82z"/>
<path style="fill:#f8e0c2; stroke:none;" d="M239 81L240 82L239 81M6 82L7 83L6 82z"/>
<path style="fill:#ba8e46; stroke:none;" d="M18.6667 82.3333L19.3333 82.6667L18.6667 82.3333z"/>
<path style="fill:#f8e0c2; stroke:none;" d="M29 82L25 85L18 84L15 88L18 89L18 90L15 91L17 96L19 96C22.4736 89.1855 25.0138 89.4244 31 93L31 94L29 100C34.3204 94.8491 33.043 87.5935 29 82z"/>
<path style="fill:#e0b062; stroke:none;" d="M102 82L103 83L102 82M126 82L128 84L126 82z"/>
<path style="fill:#ba8e46; stroke:none;" d="M146 82L147 83L146 82z"/>
<path style="fill:#47260f; stroke:none;" d="M147 82C147.127 85.9024 147.599 87.9147 151 90L150 93L151 93C154.457 86.4321 153.949 84.2336 147 82z"/>
<path style="fill:#e0b062; stroke:none;" d="M191 82L192 83L191 82z"/>
<path style="fill:#f8e0c2; stroke:none;" d="M205 82L206 83L205 82M219 82L220 83L219 82M222.333 82.6667L222.667 83.3333L222.333 82.6667z"/>
<path style="fill:#95652c; stroke:none;" d="M224 82L225 83L224 82z"/>
<path style="fill:#ba8e46; stroke:none;" d="M230 83L229 87L229 88L232 89C230.346 93.7814 233.948 96.0221 238 98L239 89L235 89L235 83L230 83M15.3333 83.6667L15.6667 84.3333L15.3333 83.6667z"/>
<path style="fill:#95652c; stroke:none;" d="M31 83L32 84L31 83z"/>
<path style="fill:#e0b062; stroke:none;" d="M66.6667 83.3333L67.3333 83.6667L66.6667 83.3333z"/>
<path style="fill:#f8e0c2; stroke:none;" d="M64 85L69 85L72 86C69.7404 82.9031 67.3032 83.6806 64 85z"/>
<path style="fill:#95652c; stroke:none;" d="M104 83L105 84L104 83z"/>
<path style="fill:#ba8e46; stroke:none;" d="M126 83L127 84L126 83z"/>
<path style="fill:#95652c; stroke:none;" d="M146 83L146 87L147 87L146 83z"/>
<path style="fill:#e0b062; stroke:none;" d="M168 83L169 84L168 83z"/>
<path style="fill:#47260f; stroke:none;" d="M187 83L186 88L191 89L190 87L193 88L187 83z"/>
<path style="fill:#ba8e46; stroke:none;" d="M223 83L224 84L223 83M3 84L0 88L3 84z"/>
<path style="fill:#95652c; stroke:none;" d="M36 84L37 85L36 84z"/>
<path style="fill:#ba8e46; stroke:none;" d="M63 84L64 85L63 84M98 84L99 85L98 84M122 84L123 85L122 84M124 84L123 86L125 86L124 84M186.333 84.6667L186.667 85.3333L186.333 84.6667z"/>
<path style="fill:#e0b062; stroke:none;" d="M210 84L210 86L212 84L210 84z"/>
<path style="fill:#ba8e46; stroke:none;" d="M215 84L215 86L217 84L215 84z"/>
<path style="fill:#f8e0c2; stroke:none;" d="M221 84L222 85L221 84z"/>
<path style="fill:#ba8e46; stroke:none;" d="M11 85L11 87L13 85L11 85z"/>
<path style="fill:#e0b062; stroke:none;" d="M69.3333 85.6667L69.6667 86.3333L69.3333 85.6667M108 91L106 90L106 91C111.074 91.7585 110.761 88.9542 112 85C108.033 85.6631 107.345 87.1071 108 91z"/>
<path style="fill:#f8e0c2; stroke:none;" d="M120.333 85.6667L120.667 86.3333L120.333 85.6667z"/>
<path style="fill:#ba8e46; stroke:none;" d="M126 85L127 86L126 85z"/>
<path style="fill:#f8e0c2; stroke:none;" d="M217 85L218 86L217 85z"/>
<path style="fill:#ba8e46; stroke:none;" d="M221 85L220 87L221 85z"/>
<path style="fill:#95652c; stroke:none;" d="M222 85L223 86L222 85M0 89L5 88L0 89M48 86L49 90L43 95C47.6293 94.8115 49.8689 91.9088 52 88L48 86z"/>
<path style="fill:#ba8e46; stroke:none;" d="M70 86L70 88L72 88L70 86M80 90L78 87L77 87L76 89L77 95L78 95L78 92L81 89L82 89L82 91L83 91L85 86L80 90z"/>
<path style="fill:#f8e0c2; stroke:none;" d="M122 86L121 88L123 88L122 86z"/>
<path style="fill:#ba8e46; stroke:none;" d="M125 86L126 87L125 86z"/>
<path style="fill:#f8e0c2; stroke:none;" d="M205 89L209 87C206.303 86.1457 205.614 86.1492 205 89z"/>
<path style="fill:#e0b062; stroke:none;" d="M211 86L212 87L211 86z"/>
<path style="fill:#ba8e46; stroke:none;" d="M212 86L213 87L212 86z"/>
<path style="fill:#95652c; stroke:none;" d="M213 86L214 87L213 86z"/>
<path style="fill:#ba8e46; stroke:none;" d="M214 86L214 88L216 88L214 86z"/>
<path style="fill:#95652c; stroke:none;" d="M221 86L222 87L221 86M232 86L233 87L232 86z"/>
<path style="fill:#47260f; stroke:none;" d="M0 92L6 88C2.38933 87.8797 1.07967 88.5118 0 92z"/>
<path style="fill:#ba8e46; stroke:none;" d="M33.3333 87.6667L33.6667 88.3333L33.3333 87.6667z"/>
<path style="fill:#95652c; stroke:none;" d="M34.6667 87.3333L35.3333 87.6667L34.6667 87.3333z"/>
<path style="fill:#f8e0c2; stroke:none;" d="M63 87L64 88L63 87M65 87L66 88L65 87z"/>
<path style="fill:#95652c; stroke:none;" d="M67 89L70 88L67 89z"/>
<path style="fill:#f8e0c2; stroke:none;" d="M72 87L73 88L72 87z"/>
<path style="fill:#e0b062; stroke:none;" d="M114 87L115 88L114 87z"/>
<path style="fill:#f8e0c2; stroke:none;" d="M124 87L125 88L124 87z"/>
<path style="fill:#e0b062; stroke:none;" d="M129.667 87.3333L130.333 87.6667L129.667 87.3333M139 87L140 88L139 87z"/>
<path style="fill:#f8e0c2; stroke:none;" d="M145 87L146 88L145 87z"/>
<path style="fill:#ba8e46; stroke:none;" d="M146 87L147 88L146 87z"/>
<path style="fill:#95652c; stroke:none;" d="M195 87L196 88L195 87M210.333 87.6667L210.667 88.3333L210.333 87.6667z"/>
<path style="fill:#47260f; stroke:none;" d="M211 87L214 90L211 87z"/>
<path style="fill:#ba8e46; stroke:none;" d="M217 87L220 89L217 87z"/>
<path style="fill:#95652c; stroke:none;" d="M219 87L220 89L219 89L212 89L211 91L211 92L215 90L216 93L213 93L218 106L222 99L218 95L225 94L221 91L219 87M225 87L226 90L227 90L227 87L225 87M6 88L6 91L7 91L8 88L6 88z"/>
<path style="fill:#ba8e46; stroke:none;" d="M61 88L62 89L61 88M68 88L70 91L68 88z"/>
<path style="fill:#f8e0c2; stroke:none;" d="M69 88L70 89L69 88z"/>
<path style="fill:#e0b062; stroke:none;" d="M115 88L116 89L115 88M127 88L128 89L127 88z"/>
<path style="fill:#ba8e46; stroke:none;" d="M147 88L148 89L147 88z"/>
<path style="fill:#e0b062; stroke:none;" d="M154 88C150.048 95.5956 154.303 98.9629 156 106L160 105L161 127L160 127C159.057 123.637 156.859 122.747 155 126L158 125L161 133L158 133L160 137L155 132L160 130C157.159 128.429 154.82 127.192 154 131L152 129L151 129L151 151L158 148L153 159L155 160L156 160C157.27 153.253 159.344 148.183 165 144L163 141L168 140L166 143L176 134L176 133L168 127L165 126L165 125L169 126L161 106L161 105L165 100C154.257 101.868 156.784 95.0618 154 88z"/>
<path style="fill:#95652c; stroke:none;" d="M196 88L197 89L196 88M203 88L204 89L203 88z"/>
<path style="fill:#ba8e46; stroke:none;" d="M204 88L205 89L204 88z"/>
<path style="fill:#e0b062; stroke:none;" d="M206.667 88.3333L207.333 88.6667L206.667 88.3333z"/>
<path style="fill:#95652c; stroke:none;" d="M208 88L209 89L208 88z"/>
<path style="fill:#ba8e46; stroke:none;" d="M209 88L210 89L209 88z"/>
<path style="fill:#e0b062; stroke:none;" d="M23 89L23 90L29 92L23 89z"/>
<path style="fill:#95652c; stroke:none;" d="M33 89L33 92L34 92L33 89z"/>
<path style="fill:#f8e0c2; stroke:none;" d="M67 89L67 91L69 91L67 89z"/>
<path style="fill:#47260f; stroke:none;" d="M69 89L70 90L69 89z"/>
<path style="fill:#95652c; stroke:none;" d="M70 89L73 91L73 90L70 89z"/>
<path style="fill:#47260f; stroke:none;" d="M71 89L72 90L71 89z"/>
<path style="fill:#f8e0c2; stroke:none;" d="M73 89L75 91L73 89M75 89L76 90L75 89z"/>
<path style="fill:#95652c; stroke:none;" d="M81 89L82 90L81 89z"/>
<path style="fill:#ba8e46; stroke:none;" d="M84 89L85 90L84 89z"/>
<path style="fill:#95652c; stroke:none;" d="M148 89L148 90L151 91L148 89z"/>
<path style="fill:#ba8e46; stroke:none;" d="M153 89L154 90L153 89M186 89L187 90L186 89M188 89L189 90L188 89z"/>
<path style="fill:#47260f; stroke:none;" d="M191 89L192 90L191 89z"/>
<path style="fill:#e0b062; stroke:none;" d="M210.667 89.3333L211.333 89.6667L210.667 89.3333M19 90L20 91L19 90M21 90L22 91L21 90z"/>
<path style="fill:#ba8e46; stroke:none;" d="M22 90L21 92L22 90z"/>
<path style="fill:#95652c; stroke:none;" d="M21 93L25 97L29 96C27.9563 90.9958 24.8976 89.0693 21 93z"/>
<path style="fill:#ba8e46; stroke:none;" d="M73 90L76 92L76 91L73 90z"/>
<path style="fill:#e0b062; stroke:none;" d="M86 90L86 91L91 93L91 92L91 91L86 90z"/>
<path style="fill:#95652c; stroke:none;" d="M104 90L101 91C102.499 93.0757 105.093 92.8865 104 90z"/>
<path style="fill:#ba8e46; stroke:none;" d="M149 90L150 91L149 90M190.667 90.3333L191.333 90.6667L190.667 90.3333z"/>
<path style="fill:#f8e0c2; stroke:none;" d="M211 90L212 91L211 90z"/>
<path style="fill:#ba8e46; stroke:none;" d="M212 90L213 91L212 90M214 90L215 93L216 93L214 90z"/>
<path style="fill:#95652c; stroke:none;" d="M4.66667 91.3333L5.33333 91.6667L4.66667 91.3333z"/>
<path style="fill:#f8e0c2; stroke:none;" d="M69 91L70 92L69 91z"/>
<path style="fill:#ba8e46; stroke:none;" d="M71 91L72 92L71 91z"/>
<path style="fill:#47260f; stroke:none;" d="M72 91L73 92L72 91z"/>
<path style="fill:#ba8e46; stroke:none;" d="M84 91L85 92L84 91z"/>
<path style="fill:#95652c; stroke:none;" d="M85 91L87 95L87 94L87 93L85 94L87 92L85 91z"/>
<path style="fill:#ba8e46; stroke:none;" d="M87 91L86 92L87 95L93 94L93 93L87 91z"/>
<path style="fill:#e0b062; stroke:none;" d="M92 93L94 92L93 95L96 91L92 93z"/>
<path style="fill:#47260f; stroke:none;" d="M103 91L104 92L103 91z"/>
<path style="fill:#f8e0c2; stroke:none;" d="M121 91L121 95L122 95L121 91z"/>
<path style="fill:#e0b062; stroke:none;" d="M132.333 91.6667L132.667 92.3333L132.333 91.6667z"/>
<path style="fill:#95652c; stroke:none;" d="M207 91L206 100L207 101L211 105L210 105L209 102L206 103L212 108L211 105L213 107L214 107C213.455 103.732 213.297 102.324 216 103C214.821 99.446 213.994 94.4802 210 94L210 92L207 91z"/>
<path style="fill:#e0b062; stroke:none;" d="M208 91L209 92L208 91M213.333 91.6667L213.667 92.3333L213.333 91.6667z"/>
<path style="fill:#f8e0c2; stroke:none;" d="M214 91L215 92L214 91z"/>
<path style="fill:#e0b062; stroke:none;" d="M0 92L0 105L2 105L3 98L1 95L4 96L2 92L0 92z"/>
<path style="fill:#95652c; stroke:none;" d="M3 92L4 93L3 92z"/>
<path style="fill:#e0b062; stroke:none;" d="M20 92L21 93L20 92z"/>
<path style="fill:#ba8e46; stroke:none;" d="M23.6667 92.3333L24.3333 92.6667L23.6667 92.3333M28 92L29 93L28 92M46 92L47 93L46 92z"/>
<path style="fill:#95652c; stroke:none;" d="M66 92L67 93L66 92z"/>
<path style="fill:#ba8e46; stroke:none;" d="M69 92L70 93L69 92z"/>
<path style="fill:#95652c; stroke:none;" d="M72 95L75 92L72 95z"/>
<path style="fill:#ba8e46; stroke:none;" d="M81 92L82 93L81 92z"/>
<path style="fill:#47260f; stroke:none;" d="M85.3333 92.6667L85.6667 93.3333L85.3333 92.6667z"/>
<path style="fill:#95652c; stroke:none;" d="M88 92L89 93L88 92z"/>
<path style="fill:#ba8e46; stroke:none;" d="M149 92L149 96L150 96L149 92z"/>
<path style="fill:#95652c; stroke:none;" d="M151 92L150 94L151 92z"/>
<path style="fill:#ba8e46; stroke:none;" d="M185 92L186 93L185 92M208 92L209 93L208 92M224 92L225 93L224 92z"/>
<path style="fill:#f8e0c2; stroke:none;" d="M1 93L2 94L1 93z"/>
<path style="fill:#e0b062; stroke:none;" d="M17 93L18 94L17 93z"/>
<path style="fill:#ba8e46; stroke:none;" d="M20 93L21 94L20 93z"/>
<path style="fill:#47260f; stroke:none;" d="M21 93L20 95C22.1944 99.2381 24.8011 99.4814 28 96L25 97L21 93z"/>
<path style="fill:#e0b062; stroke:none;" d="M29.6667 93.3333L30.3333 93.6667L29.6667 93.3333M32 93L33 94L32 93z"/>
<path style="fill:#f8e0c2; stroke:none;" d="M58 100L62 100L62 107L78 98L69 96L70 94C64.817 93.4582 61.3408 96.2394 58 100M72 93L73 94L72 93M75 93L76 94L75 93z"/>
<path style="fill:#ba8e46; stroke:none;" d="M83 93L84 94L83 93z"/>
<path style="fill:#47260f; stroke:none;" d="M87 93L88 94L87 93z"/>
<path style="fill:#95652c; stroke:none;" d="M108 93L108 96L105 95L104 98L101 96L100 97C101.879 101.465 102.632 105.293 98 108L98 109C113.1 112.695 109.08 104.116 110 93L108 93z"/>
<path style="fill:#e0b062; stroke:none;" d="M144.333 93.6667L144.667 94.3333L144.333 93.6667z"/>
<path style="fill:#ba8e46; stroke:none;" d="M151 93L151 96L152 96L151 93z"/>
<path style="fill:#95652c; stroke:none;" d="M185 93L186 94L185 93z"/>
<path style="fill:#ba8e46; stroke:none;" d="M207 93L208 94L207 93M210 93L211 94L210 93M223 93L218 95L221 100L223 93z"/>
<path style="fill:#95652c; stroke:none;" d="M20.6667 94.3333L21.3333 94.6667L20.6667 94.3333z"/>
<path style="fill:#ba8e46; stroke:none;" d="M32 94L32 97L33 97L32 94z"/>
<path style="fill:#e0b062; stroke:none;" d="M61 94L61 95L65 95L61 94z"/>
<path style="fill:#ba8e46; stroke:none;" d="M70 94L71 95L70 94z"/>
<path style="fill:#f8e0c2; stroke:none;" d="M76 94L77 95L76 94z"/>
<path style="fill:#e0b062; stroke:none;" d="M84 94L85 95L84 94M89 94L90 95L89 94z"/>
<path style="fill:#95652c; stroke:none;" d="M102.667 94.3333L103.333 94.6667L102.667 94.3333z"/>
<path style="fill:#e0b062; stroke:none;" d="M104 94L103 96L105 96L104 94z"/>
<path style="fill:#ba8e46; stroke:none;" d="M122 94L123 99L124 99L124 94L122 94z"/>
<path style="fill:#47260f; stroke:none;" d="M150.333 94.6667L150.667 95.3333L150.333 94.6667z"/>
<path style="fill:#e0b062; stroke:none;" d="M184 94L185 95L184 94z"/>
<path style="fill:#95652c; stroke:none;" d="M197 94L196 96L197 94z"/>
<path style="fill:#e0b062; stroke:none;" d="M211 94L212 95L211 94z"/>
<path style="fill:#f8e0c2; stroke:none;" d="M1 95L1 98L3 98L3 95L1 95z"/>
<path style="fill:#95652c; stroke:none;" d="M4 95L3 102L4 95z"/>
<path style="fill:#ba8e46; stroke:none;" d="M8 95L8 97L10 97L10 95L8 95z"/>
<path style="fill:#f8e0c2; stroke:none;" d="M14 95L14 96L17 97L14 95z"/>
<path style="fill:#95652c; stroke:none;" d="M33 95L32 102L32 103L28 103L28 107L25 106L25 107L27 110L17 105C19.4129 111.553 25.3258 121.776 14 122L14 123L16 124L13 125L10 121L10 115L6 115L6 114L7 111L17 108C11.4777 103.609 6.78468 105.411 1 108L1 109L5 106L13 107L13 108L10 107L7 108L0 110L2 116L2 117L0 119L7 122L6 120L7 120L14 133L15 133L14 130L17 140L18 140L17 133C19.9826 132.63 19.8629 130.916 20 128L22 131L26 131L29 110L38 113L39 101L38 101L38 104L37 104L36 95L33 95M42 95L43 96L42 95M71 95L72 96L71 95M73 95L74 96L73 95z"/>
<path style="fill:#f8e0c2; stroke:none;" d="M78 95L78 96L81 96L78 95M148 95L149 96L148 95z"/>
<path style="fill:#95652c; stroke:none;" d="M184 95L185 96L184 95M199 95L199 96L202 96L199 95z"/>
<path style="fill:#47260f; stroke:none;" d="M208 98L212 98L212 97L211 95L208 98z"/>
<path style="fill:#95652c; stroke:none;" d="M223 95L224 96L223 95z"/>
<path style="fill:#ba8e46; stroke:none;" d="M3 96L3 99L4 99L3 96M28 96L29 97L28 96z"/>
<path style="fill:#e0b062; stroke:none;" d="M29 96L30 97L29 96z"/>
<path style="fill:#95652c; stroke:none;" d="M41 96L42 97L41 96z"/>
<path style="fill:#f8e0c2; stroke:none;" d="M57 96L58 97L57 96z"/>
<path style="fill:#95652c; stroke:none;" d="M59 96L60 97L59 96z"/>
<path style="fill:#e0b062; stroke:none;" d="M61 96L62 97L61 96z"/>
<path style="fill:#ba8e46; stroke:none;" d="M65 96L66 97L65 96z"/>
<path style="fill:#e0b062; stroke:none;" d="M66 96L67 97L66 96z"/>
<path style="fill:#ba8e46; stroke:none;" d="M68.3333 96.6667L68.6667 97.3333L68.3333 96.6667z"/>
<path style="fill:#f8e0c2; stroke:none;" d="M138 96L139 97L138 96z"/>
<path style="fill:#95652c; stroke:none;" d="M150 96L150 99L152 99L152 96L150 96z"/>
<path style="fill:#e0b062; stroke:none;" d="M183 96L184 97L183 96M222 96L221 98L222 96z"/>
<path style="fill:#ba8e46; stroke:none;" d="M234 96L230 101L230 103L235 111L240 110L240 109L234 108L234 107L240 106L232 102L234 96z"/>
<path style="fill:#e0b062; stroke:none;" d="M235 96L236 97L235 96z"/>
<path style="fill:#95652c; stroke:none;" d="M20 97L22 101L23 101L20 97M23 97L24 98L23 97M27 97L28 98L27 97z"/>
<path style="fill:#e0b062; stroke:none;" d="M28 97L23 101L23 102L25 103L31 99L28 97z"/>
<path style="fill:#95652c; stroke:none;" d="M40 97L41 98L40 97z"/>
<path style="fill:#e0b062; stroke:none;" d="M60 97L61 98L60 97M61 99L62 100L64 97L61 99z"/>
<path style="fill:#95652c; stroke:none;" d="M65.3333 97.6667L65.6667 98.3333L65.3333 97.6667M69 97L66 101L69 97z"/>
<path style="fill:#e0b062; stroke:none;" d="M175 97L176 98L175 97M186 97L187 98L186 97z"/>
<path style="fill:#95652c; stroke:none;" d="M209 97L210 98L209 97M222 97L223 98L222 97z"/>
<path style="fill:#f8e0c2; stroke:none;" d="M234 97L233 102L240 103L240 98L234 97M0.333333 98.6667L0.666667 99.3333L0.333333 98.6667z"/>
<path style="fill:#ba8e46; stroke:none;" d="M20 98L21 99L20 98M26 98L27 99L26 98M31.3333 98.6667L31.6667 99.3333L31.3333 98.6667z"/>
<path style="fill:#f8e0c2; stroke:none;" d="M49 98L49 101L51 98L49 98z"/>
<path style="fill:#e0b062; stroke:none;" d="M65 100L68 99L65 100M69 98L70 99L69 98z"/>
<path style="fill:#ba8e46; stroke:none;" d="M95.3333 98.6667L95.6667 99.3333L95.3333 98.6667z"/>
<path style="fill:#f8e0c2; stroke:none;" d="M125 98L124 100L126 100L125 98z"/>
<path style="fill:#e0b062; stroke:none;" d="M165 99L167 102L173 101L172 98L165 99z"/>
<path style="fill:#95652c; stroke:none;" d="M188 98L189 99L188 98M196 98L196 100L198 100L196 98z"/>
<path style="fill:#ba8e46; stroke:none;" d="M209 98L210 99L209 98z"/>
<path style="fill:#e0b062; stroke:none;" d="M220 98L221 99L220 98z"/>
<path style="fill:#ba8e46; stroke:none;" d="M2 99L0 109L11 105L11 104L6 100L2 99z"/>
<path style="fill:#f8e0c2; stroke:none;" d="M17 99L18 100L17 99z"/>
<path style="fill:#ba8e46; stroke:none;" d="M21 99L21 104L25 104L25 101L23 102L21 99M24.6667 99.3333L25.3333 99.6667L24.6667 99.3333M27 99L26 101L27 99z"/>
<path style="fill:#95652c; stroke:none;" d="M39 99L40 100L39 99z"/>
<path style="fill:#e0b062; stroke:none;" d="M59 99L60 100L59 99z"/>
<path style="fill:#47260f; stroke:none;" d="M66 99L67 100L66 99z"/>
<path style="fill:#e0b062; stroke:none;" d="M70 99L71 100L70 99z"/>
<path style="fill:#f8e0c2; stroke:none;" d="M121 99L108 111L106 122L111 124L119 120C123.487 119.795 124.333 117.185 124 113L129 112L128 109L123 103L124 106L120 105L121 99z"/>
<path style="fill:#ba8e46; stroke:none;" d="M150 99L147 105L152 107L149 107L149 108L155 109C156.755 103.979 154.933 100.829 150 99M171 99L172 100L171 99M207 99L208 100L207 99M211 99L212 100L211 99z"/>
<path style="fill:#47260f; stroke:none;" d="M212.333 99.6667L212.667 100.333L212.333 99.6667z"/>
<path style="fill:#ba8e46; stroke:none;" d="M8.66667 100.333L9.33333 100.667L8.66667 100.333M23 100L24 101L23 100M30 100L31 101L30 100z"/>
<path style="fill:#95652c; stroke:none;" d="M58 100L59 101L58 100z"/>
<path style="fill:#e0b062; stroke:none;" d="M60 100L59 104L60 104L62 101L60 100z"/>
<path style="fill:#ba8e46; stroke:none;" d="M65 100L66 101L65 100z"/>
<path style="fill:#e0b062; stroke:none;" d="M189 100L190 101L189 100z"/>
<path style="fill:#ba8e46; stroke:none;" d="M208 100L210 105L211 105L212 102L208 100z"/>
<path style="fill:#47260f; stroke:none;" d="M209 100L210 101L209 100z"/>
<path style="fill:#e0b062; stroke:none;" d="M233 100L234 101L233 100z"/>
<path style="fill:#ba8e46; stroke:none;" d="M27 104L32 103L27 104M57.6667 101.333L58.3333 101.667L57.6667 101.333z"/>
<path style="fill:#95652c; stroke:none;" d="M60 101L61 102L60 101z"/>
<path style="fill:#ba8e46; stroke:none;" d="M61 101L60 103L61 101z"/>
<path style="fill:#e0b062; stroke:none;" d="M65.3333 101.667L65.6667 102.333L65.3333 101.667z"/>
<path style="fill:#ba8e46; stroke:none;" d="M133 101L133 115L136 116L134 118L136 120L136 121L135 124L136 124L139 119L139 118L137 106L142 107L141 112L142 112L141 109L147 105L145 107L135 101L133 101z"/>
<path style="fill:#e0b062; stroke:none;" d="M190 101L191 102L190 101M232 101L233 102L232 101z"/>
<path style="fill:#95652c; stroke:none;" d="M58 102L59 103L58 102z"/>
<path style="fill:#47260f; stroke:none;" d="M61 102L62 103L61 102z"/>
<path style="fill:#e0b062; stroke:none;" d="M165 102L166 103L165 102z"/>
<path style="fill:#95652c; stroke:none;" d="M191 102L192 103L191 102z"/>
<path style="fill:#e0b062; stroke:none;" d="M210 102L211 103L210 102z"/>
<path style="fill:#47260f; stroke:none;" d="M218 102L219 103L218 102z"/>
<path style="fill:#e0b062; stroke:none;" d="M233 102L233 103L240 105L233 102z"/>
<path style="fill:#95652c; stroke:none;" d="M23 104L23 105L27 104L23 104z"/>
<path style="fill:#ba8e46; stroke:none;" d="M32 103L33 104L32 103M58 103L57 106L58 103z"/>
<path style="fill:#f8e0c2; stroke:none;" d="M60 103L60 108L61 108L60 103z"/>
<path style="fill:#95652c; stroke:none;" d="M61.3333 103.667L61.6667 104.333L61.3333 103.667z"/>
<path style="fill:#e0b062; stroke:none;" d="M64 103L65 104L64 103z"/>
<path style="fill:#f8e0c2; stroke:none;" d="M93 103L93 104L95 106L96 106L93 103z"/>
<path style="fill:#95652c; stroke:none;" d="M151 103L151 105L153 105L151 103z"/>
<path style="fill:#e0b062; stroke:none;" d="M191 103L192 104L191 103z"/>
<path style="fill:#47260f; stroke:none;" d="M209 103L210 104L209 103z"/>
<path style="fill:#e0b062; stroke:none;" d="M211 103L212 104L211 103z"/>
<path style="fill:#47260f; stroke:none;" d="M229 103L231 105L229 103z"/>
<path style="fill:#ba8e46; stroke:none;" d="M19.6667 104.333L20.3333 104.667L19.6667 104.333z"/>
<path style="fill:#47260f; stroke:none;" d="M25 104L28 107L25 104z"/>
<path style="fill:#ba8e46; stroke:none;" d="M38 104L38 115L39 115L38 104z"/>
<path style="fill:#47260f; stroke:none;" d="M59 104L60 105L59 104z"/>
<path style="fill:#ba8e46; stroke:none;" d="M67 104L68 105L67 104M106 104L107 105L106 104z"/>
<path style="fill:#95652c; stroke:none;" d="M112 104L113 105L112 104z"/>
<path style="fill:#e0b062; stroke:none;" d="M149 104L152 107L149 104z"/>
<path style="fill:#95652c; stroke:none;" d="M192 104L193 105L192 104z"/>
<path style="fill:#ba8e46; stroke:none;" d="M225 104L227 111L230 105L225 104z"/>
<path style="fill:#95652c; stroke:none;" d="M229 104L230 105L229 104z"/>
<path style="fill:#ba8e46; stroke:none;" d="M13.6667 105.333L14.3333 105.667L13.6667 105.333M16 105L17 106L16 105z"/>
<path style="fill:#f8e0c2; stroke:none;" d="M21 105L24 109L21 105z"/>
<path style="fill:#ba8e46; stroke:none;" d="M23 105L25 107L25 105L23 105M60 105L61 106L60 105z"/>
<path style="fill:#f8e0c2; stroke:none;" d="M148 105L151 107L148 105z"/>
<path style="fill:#95652c; stroke:none;" d="M154 105L155 106L154 105z"/>
<path style="fill:#ba8e46; stroke:none;" d="M157 105L159 112L160 112L160 105L157 105M192 105L193 106L192 105z"/>
<path style="fill:#47260f; stroke:none;" d="M209 105L210 106L209 105z"/>
<path style="fill:#ba8e46; stroke:none;" d="M211 105L213 107L213 105L211 105z"/>
<path style="fill:#e0b062; stroke:none;" d="M228 105L229 106L228 105z"/>
<path style="fill:#95652c; stroke:none;" d="M234.667 105.333L235.333 105.667L234.667 105.333z"/>
<path style="fill:#47260f; stroke:none;" d="M5 106L12 107L12 106L5 106M15 106L15 107L18 107L15 106z"/>
<path style="fill:#95652c; stroke:none;" d="M57 106L58 107L57 106M137 106L137 118L139 114L142 107L137 106M146.667 106.333L147.333 106.667L146.667 106.333M156 106L157 111L156 111L156 108L152 108L149 112L149 113L151 119L152 119C153.75 114.82 155.817 114.187 160 113L156 106z"/>
<path style="fill:#e0b062; stroke:none;" d="M211 106L212 107L211 106M234 107L234 108L240 109C239.231 105.411 237.137 106.166 234 107z"/>
<path style="fill:#ba8e46; stroke:none;" d="M11.6667 107.333L12.3333 107.667L11.6667 107.333M17 107L7 111L6 114L6 115L10 115L10 121L14 123L14 122C24.0044 123.108 21.7874 112.184 17 107M20 107L21 108L20 107M25 107L24 109L24 110C26.4584 109.483 27.5234 108.417 25 107M57 107L58 108L57 107M62 107L61 110L62 107M65 107L63 109L61 113L58 110L57 112L58 117L59 117L59 114L60 114L60 118C71.8048 117.578 80.7012 126.644 81 138L80 138C75.6718 131.898 70.505 139.923 66 142L68 145L65 148L72 150L72 151C65.2712 153.458 63.5235 155.714 56 154C65.7441 164.544 85.0264 154.514 97 154L96 148L80 151L80 147L79 147L74 153L76 144L81 146L81 141L78 142L82 139L81 128L86 131L86 123L87 123L91 127L89 125L89 124L93 124L94 120L95 120L96 140L97 140L97 114L92 112L91 119L87 116L89 117L89 116L89 112L86 113L85 110C79.892 111.985 77.1665 113.475 72 111L73 113L72 113L71 110L65 107z"/>
<path style="fill:#e0b062; stroke:none;" d="M146 107L147 108L146 107z"/>
<path style="fill:#f8e0c2; stroke:none;" d="M147 107L148 108L147 107z"/>
<path style="fill:#95652c; stroke:none;" d="M153 107L154 108L153 107z"/>
<path style="fill:#47260f; stroke:none;" d="M156 107L156 111L157 111L156 107z"/>
<path style="fill:#95652c; stroke:none;" d="M193 107L193 110L194 110L193 107M228 107L229 108L228 107z"/>
<path style="fill:#47260f; stroke:none;" d="M229 107L232 110L229 107z"/>
<path style="fill:#ba8e46; stroke:none;" d="M4 108L7 110L4 108M8.66667 108.333L9.33333 108.667L8.66667 108.333M21.6667 108.333L22.3333 108.667L21.6667 108.333z"/>
<path style="fill:#f8e0c2; stroke:none;" d="M59 108L60 109L59 108z"/>
<path style="fill:#ba8e46; stroke:none;" d="M109 108L110 109L109 108z"/>
<path style="fill:#47260f; stroke:none;" d="M144 108L145 109L144 108z"/>
<path style="fill:#95652c; stroke:none;" d="M145 108L145 110L147 108L145 108z"/>
<path style="fill:#47260f; stroke:none;" d="M147 108L149 110L147 108z"/>
<path style="fill:#ba8e46; stroke:none;" d="M148 108L149 109L148 108z"/>
<path style="fill:#f8e0c2; stroke:none;" d="M161 108L161 110L163 110L161 108z"/>
<path style="fill:#95652c; stroke:none;" d="M220.667 108.333L221.333 108.667L220.667 108.333z"/>
<path style="fill:#47260f; stroke:none;" d="M228 108L229 109L228 108z"/>
<path style="fill:#e0b062; stroke:none;" d="M0 109L0 110L5 110L0 109z"/>
<path style="fill:#f8e0c2; stroke:none;" d="M47 109L44 121L49 123L54 120L55 116L51 118L51 110L47 109z"/>
<path style="fill:#ba8e46; stroke:none;" d="M108 109L109 110L108 109z"/>
<path style="fill:#f8e0c2; stroke:none;" d="M142 109L142 111L144 111L144 109L142 109z"/>
<path style="fill:#ba8e46; stroke:none;" d="M144 112C154.348 118.861 141.859 126.712 143 136L139 139L139 140L147 149C142.518 148.432 140.885 144.771 139 141L138 141L142 158L141 158L140 156L127 165L127 166C133.258 165.45 142.811 163.014 144 156L153 160L158 148L151 151L151 129L152 129L154 131L160 130L155 132L160 137L158 133L161 133L158 125L155 126L156 123L160 127L161 127L160 113C155.365 113.502 153.288 114.339 152 119L151 119L150 110L148 109L144 112z"/>
<path style="fill:#95652c; stroke:none;" d="M149 109L150 110L149 109z"/>
<path style="fill:#ba8e46; stroke:none;" d="M151 109L152 110L151 109z"/>
<path style="fill:#95652c; stroke:none;" d="M195 115L203 123L205 120L208 121L208 111L207 111L207 116L202 113C202 103.205 195.04 115.01 195 115z"/>
<path style="fill:#e0b062; stroke:none;" d="M16.6667 110.333L17.3333 110.667L16.6667 110.333z"/>
<path style="fill:#ba8e46; stroke:none;" d="M22 110L24 112L22 110M29 110L30 111L29 110M107 110L108 111L107 110M131 110L130 111L133 113L131 110z"/>
<path style="fill:#95652c; stroke:none;" d="M148 110L149 111L148 110z"/>
<path style="fill:#47260f; stroke:none;" d="M153 110L152 113L155 111L153 110z"/>
<path style="fill:#ba8e46; stroke:none;" d="M193.333 110.667L193.667 111.333L193.333 110.667M228 111L231 114L232 111L228 111z"/>
<path style="fill:#e0b062; stroke:none;" d="M231 119L231 122L233 121L230 124L232 129L228 130L228 131L240 129L232 130L232 129L237 129L239 110C230.799 110 236.334 120.333 231 119z"/>
<path style="fill:#f8e0c2; stroke:none;" d="M239.333 110.667L239.667 111.333L239.333 110.667z"/>
<path style="fill:#47260f; stroke:none;" d="M28 111L26 131L22 131L22 128L20 128L17 133L19 144L20 144C24.9928 139.29 38.7193 139.415 45 141L35 134L36 127L33 126L36 119L37 119L37 123L38 123L38 113L28 111z"/>
<path style="fill:#e0b062; stroke:none;" d="M64 111L68 114L64 111z"/>
<path style="fill:#ba8e46; stroke:none;" d="M106 111L107 112L106 111M223 111L225 113L223 111z"/>
<path style="fill:#47260f; stroke:none;" d="M232 111L233 112L232 111z"/>
<path style="fill:#ba8e46; stroke:none;" d="M233 111L233 117C230.706 116.969 231.284 117.832 232 120C234.471 117.035 234.779 114.448 233 111M139 112L140 113L139 112z"/>
<path style="fill:#e0b062; stroke:none;" d="M193 112L194 113L193 112z"/>
<path style="fill:#ba8e46; stroke:none;" d="M199 112L200 113L199 112z"/>
<path style="fill:#e0b062; stroke:none;" d="M79 113L79 121L80 121L80 117L81 117L81 120L82 120L81 113L79 113z"/>
<path style="fill:#ba8e46; stroke:none;" d="M129 113L119 127C116.253 126.171 115 126.012 115 129L120 131L130 124L129 113z"/>
<path style="fill:#95652c; stroke:none;" d="M194 113L195 114L194 113M59 114L59 120L64 120L64 119L60 118L59 114z"/>
<path style="fill:#47260f; stroke:none;" d="M139 114L140 115L139 114z"/>
<path style="fill:#ba8e46; stroke:none;" d="M140 114L141 115L140 114z"/>
<path style="fill:#e0b062; stroke:none;" d="M194 114C191.143 118.487 189.983 127.708 191 133L183 131C187.685 136.624 194.408 133.937 201 134L200 130L209 134L209 133L201 128L195 128L195 127L199 128L199 127L194 114z"/>
<path style="fill:#ba8e46; stroke:none;" d="M228 114L229 117L230 117L230 114L228 114z"/>
<path style="fill:#47260f; stroke:none;" d="M231 114L232 115L231 114z"/>
<path style="fill:#ba8e46; stroke:none;" d="M132 115L133 116L132 115M202.333 115.667L202.667 116.333L202.333 115.667z"/>
<path style="fill:#e0b062; stroke:none;" d="M229 115L230 116L229 115M232.333 115.667L232.667 116.333L232.333 115.667z"/>
<path style="fill:#ba8e46; stroke:none;" d="M0.666667 116.333L1.33333 116.667L0.666667 116.333M38.3333 116.667L38.6667 117.333L38.3333 116.667z"/>
<path style="fill:#e0b062; stroke:none;" d="M66 116L66 118L68 118L68 116L66 116z"/>
<path style="fill:#ba8e46; stroke:none;" d="M139 116L140 117L139 116M195 116L196 117L195 116z"/>
<path style="fill:#e0b062; stroke:none;" d="M84 117L84 120L85 120L84 117z"/>
<path style="fill:#ba8e46; stroke:none;" d="M226 117L226 120L228 119L228 118L226 117z"/>
<path style="fill:#95652c; stroke:none;" d="M38 118L38 123L37 123L37 119L36 119L33 126L36 127L35 134L45 141C37.7137 137.357 20.4649 141.675 20 144L19 144L19 141L18 141L15 149C25.9834 149.47 36.5373 147.82 47 144L38 118z"/>
<path style="fill:#ba8e46; stroke:none;" d="M193 118L192 119L195 122L193 118M196.333 118.667L196.667 119.333L196.333 118.667M0.666667 119.333L1.33333 119.667L0.666667 119.333z"/>
<path style="fill:#47260f; stroke:none;" d="M5 119L6 120L5 119z"/>
<path style="fill:#ba8e46; stroke:none;" d="M58 119L59 120L58 119z"/>
<path style="fill:#47260f; stroke:none;" d="M61 119L62 120L61 119z"/>
<path style="fill:#ba8e46; stroke:none;" d="M142 119L143 120L142 119z"/>
<path style="fill:#e0b062; stroke:none;" d="M156 119L157 120L156 119z"/>
<path style="fill:#47260f; stroke:none;" d="M229 119L230 120L229 119z"/>
<path style="fill:#ba8e46; stroke:none;" d="M3 120L4 121L3 120z"/>
<path style="fill:#47260f; stroke:none;" d="M6 120L8 122L8 120L6 120z"/>
<path style="fill:#ba8e46; stroke:none;" d="M39 120L40 121L39 120M59 120L59 121L62 121L59 120z"/>
<path style="fill:#95652c; stroke:none;" d="M94 120L93 124L89 124L89 125L91 127L87 123L86 123L86 131L81 128L80 151L97 149L97 144L82 146C82.3717 138.93 87.4584 139.678 92 136L97 141L94 120z"/>
<path style="fill:#ba8e46; stroke:none;" d="M132.667 120.333L133.333 120.667L132.667 120.333z"/>
<path style="fill:#f8e0c2; stroke:none;" d="M140 120L141 121L140 120z"/>
<path style="fill:#95652c; stroke:none;" d="M141 120L142 121L141 120z"/>
<path style="fill:#47260f; stroke:none;" d="M142 120L144 123L142 120z"/>
<path style="fill:#ba8e46; stroke:none;" d="M144.333 120.667L144.667 121.333L144.333 120.667M191 120L183 129L183 130L188 133L184 131L191 133L191 120z"/>
<path style="fill:#95652c; stroke:none;" d="M197 120L197 124L198 124L197 120z"/>
<path style="fill:#ba8e46; stroke:none;" d="M228.333 120.667L228.667 121.333L228.333 120.667z"/>
<path style="fill:#f8e0c2; stroke:none;" d="M3 121L9 127L3 121z"/>
<path style="fill:#e0b062; stroke:none;" d="M5 121L6 122L5 121z"/>
<path style="fill:#f8e0c2; stroke:none;" d="M49 128L50 135C55.1165 133.783 60.319 131.727 63 127L68 129L71 127L71 123C61.3423 119.383 56.2082 121.522 49 128z"/>
<path style="fill:#ba8e46; stroke:none;" d="M141 121L142 122L141 121z"/>
<path style="fill:#95652c; stroke:none;" d="M143 121L144 122L143 121M149 121L148 125L149 125L151 121L149 121z"/>
<path style="fill:#e0b062; stroke:none;" d="M190.333 121.667L190.667 122.333L190.333 121.667z"/>
<path style="fill:#ba8e46; stroke:none;" d="M232 121L229 122L229 126L228 126L227 123L223 126L224 129L229 130L232 129L230 124C232.269 124.013 232.858 123.182 232 121z"/>
<path style="fill:#f8e0c2; stroke:none;" d="M0 122L1 123L0 122z"/>
<path style="fill:#e0b062; stroke:none;" d="M6 122L7 123L6 122z"/>
<path style="fill:#ba8e46; stroke:none;" d="M7 122L8 123L7 122z"/>
<path style="fill:#95652c; stroke:none;" d="M135 122L136 123L135 122z"/>
<path style="fill:#f8e0c2; stroke:none;" d="M139 122L140 123L139 122z"/>
<path style="fill:#95652c; stroke:none;" d="M140 124L143 123L140 124z"/>
<path style="fill:#ba8e46; stroke:none;" d="M8 123L10 125L10 123L8 123z"/>
<path style="fill:#47260f; stroke:none;" d="M23 123L21 127L23 123z"/>
<path style="fill:#95652c; stroke:none;" d="M134 123L129 130L130 134L131 134L134 123z"/>
<path style="fill:#e0b062; stroke:none;" d="M141 123L142 124L141 123z"/>
<path style="fill:#ba8e46; stroke:none;" d="M142 123L143 124L142 123z"/>
<path style="fill:#e0b062; stroke:none;" d="M189 123L190 124L189 123z"/>
<path style="fill:#f8e0c2; stroke:none;" d="M196.333 123.667L196.667 124.333L196.333 123.667z"/>
<path style="fill:#ba8e46; stroke:none;" d="M40.3333 124.667L40.6667 125.333L40.3333 124.667M133 124L134 125L133 124z"/>
<path style="fill:#f8e0c2; stroke:none;" d="M138 124L137 127L138 124z"/>
<path style="fill:#47260f; stroke:none;" d="M140 124L140 125L143 125L140 124z"/>
<path style="fill:#f8e0c2; stroke:none;" d="M143 124L144 125L143 124z"/>
<path style="fill:#95652c; stroke:none;" d="M151 124L149 131L150 131L151 124M190 124L191 125L190 124z"/>
<path style="fill:#f8e0c2; stroke:none;" d="M238 124L236 128L240 124L238 124M0 125L1 126L0 125z"/>
<path style="fill:#ba8e46; stroke:none;" d="M10 125L11 126L10 125M16 125L17 126L16 125M132 125L133 126L132 125M134 125L135 126L134 125z"/>
<path style="fill:#95652c; stroke:none;" d="M138 126L137 130L137 131L140 132L140 125L138 126z"/>
<path style="fill:#ba8e46; stroke:none;" d="M140 125L141 126L140 125z"/>
<path style="fill:#e0b062; stroke:none;" d="M188 125L189 126L188 125z"/>
<path style="fill:#f8e0c2; stroke:none;" d="M4.66667 126.333L5.33333 126.667L4.66667 126.333z"/>
<path style="fill:#ba8e46; stroke:none;" d="M11.3333 126.667L11.6667 127.333L11.3333 126.667M41.3333 126.667L41.6667 127.333L41.3333 126.667z"/>
<path style="fill:#95652c; stroke:none;" d="M82.3333 126.667L82.6667 127.333L82.3333 126.667z"/>
<path style="fill:#ba8e46; stroke:none;" d="M124 129L132 130L132 126L124 129z"/>
<path style="fill:#e0b062; stroke:none;" d="M187 126L188 127L187 126z"/>
<path style="fill:#95652c; stroke:none;" d="M197 126L198 127L197 126M199 126L201 128L199 126z"/>
<path style="fill:#f8e0c2; stroke:none;" d="M7.33333 127.667L7.66667 128.333L7.33333 127.667M9 127L10 128L9 127z"/>
<path style="fill:#47260f; stroke:none;" d="M24 127L25 128L24 127z"/>
<path style="fill:#f8e0c2; stroke:none;" d="M100 130C97.3829 138.256 94.8702 156.086 104 161L108 158L106 152C102.462 147.514 104.092 139.261 105 134C108.541 137.732 110.153 143.903 110 149L113 148L114 154L117 153C118.021 157.144 120.044 162.3 116 165L116 166C121.452 165.4 128.214 162.483 130 157L134 157L136 152C129.636 143.308 123.57 129.117 111 127.485C107.077 126.975 103.807 129.695 100 130z"/>
<path style="fill:#95652c; stroke:none;" d="M116 127L120 130L116 127z"/>
<path style="fill:#ba8e46; stroke:none;" d="M133.333 127.667L133.667 128.333L133.333 127.667M136.667 127.333L137.333 127.667L136.667 127.333z"/>
<path style="fill:#e0b062; stroke:none;" d="M138.333 127.667L138.667 128.333L138.333 127.667z"/>
<path style="fill:#47260f; stroke:none;" d="M139 127L140 128L139 127z"/>
<path style="fill:#ba8e46; stroke:none;" d="M141 127L142 128L141 127z"/>
<path style="fill:#95652c; stroke:none;" d="M146 127L147 128L146 127z"/>
<path style="fill:#ba8e46; stroke:none;" d="M163.667 127.333L164.333 127.667L163.667 127.333z"/>
<path style="fill:#e0b062; stroke:none;" d="M185.667 127.333L186.333 127.667L185.667 127.333z"/>
<path style="fill:#95652c; stroke:none;" d="M188 127L189 128L188 127z"/>
<path style="fill:#f8e0c2; stroke:none;" d="M195 127L195 128L200 127L195 127z"/>
<path style="fill:#e0b062; stroke:none;" d="M238.667 127.333L239.333 127.667L238.667 127.333z"/>
<path style="fill:#f8e0c2; stroke:none;" d="M3 128L4 129L3 128z"/>
<path style="fill:#ba8e46; stroke:none;" d="M12.3333 128.667L12.6667 129.333L12.3333 128.667M42 128L43 129L42 128z"/>
<path style="fill:#e0b062; stroke:none;" d="M114 128L115 129L114 128z"/>
<path style="fill:#f8e0c2; stroke:none;" d="M135 128L137 131L135 128z"/>
<path style="fill:#47260f; stroke:none;" d="M136 128L138 130L136 128z"/>
<path style="fill:#f8e0c2; stroke:none;" d="M137 128L138 129L137 128z"/>
<path style="fill:#ba8e46; stroke:none;" d="M139.333 128.667L139.667 129.333L139.333 128.667z"/>
<path style="fill:#e0b062; stroke:none;" d="M188 128L189 129L188 128z"/>
<path style="fill:#95652c; stroke:none;" d="M201 128L201 129L218 132L201 128M220 128L221 129L220 128z"/>
<path style="fill:#ba8e46; stroke:none;" d="M232 129L232 130L240 129L232 129z"/>
<path style="fill:#f8e0c2; stroke:none;" d="M5 129L6 130L5 129z"/>
<path style="fill:#ba8e46; stroke:none;" d="M43 129L44 130L43 129z"/>
<path style="fill:#e0b062; stroke:none;" d="M116 129L117 130L116 129z"/>
<path style="fill:#ba8e46; stroke:none;" d="M117.667 129.333L118.333 129.667L117.667 129.333M136 129L137 130L136 129z"/>
<path style="fill:#f8e0c2; stroke:none;" d="M138 129L139 130L138 129z"/>
<path style="fill:#95652c; stroke:none;" d="M183 130L188 133L183 130z"/>
<path style="fill:#ba8e46; stroke:none;" d="M201 129L202 130L201 129z"/>
<path style="fill:#95652c; stroke:none;" d="M216 129L217 130L216 129z"/>
<path style="fill:#47260f; stroke:none;" d="M226.667 129.333L227.333 129.667L226.667 129.333z"/>
<path style="fill:#f8e0c2; stroke:none;" d="M0 130C0.00235125 133.041 1.37416 147.005 7.58488 143.677C14.0878 140.192 2.58077 131.87 0 130z"/>
<path style="fill:#47260f; stroke:none;" d="M14 130L15 134L16 134L14 130z"/>
<path style="fill:#95652c; stroke:none;" d="M32.3333 130.667L32.6667 131.333L32.3333 130.667z"/>
<path style="fill:#ba8e46; stroke:none;" d="M44 130L45 138L46 138L44 130z"/>
<path style="fill:#e0b062; stroke:none;" d="M118.667 130.333L119.333 130.667L118.667 130.333z"/>
<path style="fill:#ba8e46; stroke:none;" d="M128 130L125 132L125 134L131 138L130 136L133 136L133 135L128 130M132 130L133 131L132 130M202 130L202 131L208 132L208 131L202 130M226.667 130.333L227.333 130.667L226.667 130.333M13 131L14 132L13 131z"/>
<path style="fill:#f8e0c2; stroke:none;" d="M137 131L138 132L137 131z"/>
<path style="fill:#47260f; stroke:none;" d="M138 131L139 132L138 131z"/>
<path style="fill:#ba8e46; stroke:none;" d="M218 131L218 132L224 132L218 131z"/>
<path style="fill:#e0b062; stroke:none;" d="M224.667 131.333L225.333 131.667L224.667 131.333z"/>
<path style="fill:#ba8e46; stroke:none;" d="M5 132L10 145L11 145C12.6071 139.141 10.7136 134.34 5 132M131 132L132 133L131 132M138 132L139 133L138 132z"/>
<path style="fill:#f8e0c2; stroke:none;" d="M141 132L142 133L141 132z"/>
<path style="fill:#ba8e46; stroke:none;" d="M208 132L208 133L216 133L208 132M14.3333 133.667L14.6667 134.333L14.3333 133.667z"/>
<path style="fill:#f8e0c2; stroke:none;" d="M135 133L136 134L135 133z"/>
<path style="fill:#95652c; stroke:none;" d="M96 134L97 135L96 134z"/>
<path style="fill:#f8e0c2; stroke:none;" d="M133 134L133 137L134 137L133 134M140 134L141 135L140 134z"/>
<path style="fill:#ba8e46; stroke:none;" d="M15 135L16 136L15 135z"/>
<path style="fill:#e0b062; stroke:none;" d="M97 135L97 141L98 141L97 135z"/>
<path style="fill:#f8e0c2; stroke:none;" d="M131 135L132 136L131 135z"/>
<path style="fill:#95652c; stroke:none;" d="M134 135L132 139L134 135z"/>
<path style="fill:#ba8e46; stroke:none;" d="M135 135L136 136L135 135z"/>
<path style="fill:#95652c; stroke:none;" d="M142 135L143 136L142 135z"/>
<path style="fill:#ba8e46; stroke:none;" d="M16 136L17 137L16 136z"/>
<path style="fill:#f8e0c2; stroke:none;" d="M50 145L51 145L50 140L54 142L54 137C47.5562 136.667 47.1581 139.822 50 145z"/>
<path style="fill:#47260f; stroke:none;" d="M91 136C86.7467 139.717 81.2324 138.73 82 146L97 144L91 136M135 136L136 137L135 136z"/>
<path style="fill:#95652c; stroke:none;" d="M136 136L134 139L134 140L138 140L136 136z"/>
<path style="fill:#f8e0c2; stroke:none;" d="M137 136L138 137L137 136z"/>
<path style="fill:#e0b062; stroke:none;" d="M134 137L136 139L136 137L134 137z"/>
<path style="fill:#ba8e46; stroke:none;" d="M137 137L138 138L137 137M160 137L161 138L160 137z"/>
<path style="fill:#47260f; stroke:none;" d="M133 138L134 139L133 138z"/>
<path style="fill:#ba8e46; stroke:none;" d="M134 138L135 139L134 138z"/>
<path style="fill:#f8e0c2; stroke:none;" d="M138 138L139 139L138 138z"/>
<path style="fill:#ba8e46; stroke:none;" d="M16 139L17 140L16 139M46.3333 139.667L46.6667 140.333L46.3333 139.667z"/>
<path style="fill:#e0b062; stroke:none;" d="M78 142L82 139L78 142z"/>
<path style="fill:#f8e0c2; stroke:none;" d="M128 139L129 140L128 139z"/>
<path style="fill:#ba8e46; stroke:none;" d="M129 139L129 140L134 141L129 139M136 139L137 140L136 139M17 140L18 141L17 140z"/>
<path style="fill:#47260f; stroke:none;" d="M134 140L135 141L134 140z"/>
<path style="fill:#ba8e46; stroke:none;" d="M135 140L136 141L135 140z"/>
<path style="fill:#95652c; stroke:none;" d="M139 140C140.023 144.708 141.801 148.762 147 149L139 140z"/>
<path style="fill:#ba8e46; stroke:none;" d="M163 143L168 140L163 143M97 141L97 146L98 146L97 141M130 141L131 142L130 141z"/>
<path style="fill:#95652c; stroke:none;" d="M134 141L135 142L134 141z"/>
<path style="fill:#f8e0c2; stroke:none;" d="M137 141L138 142L137 141z"/>
<path style="fill:#ba8e46; stroke:none;" d="M47 142L48 143L47 142z"/>
<path style="fill:#e0b062; stroke:none;" d="M98 142L99 143L98 142M128 142L130 144L128 142z"/>
<path style="fill:#f8e0c2; stroke:none;" d="M17 143L18 144L17 143z"/>
<path style="fill:#e0b062; stroke:none;" d="M68 143L69 144L68 143M144 143L145 144L144 143z"/>
<path style="fill:#ba8e46; stroke:none;" d="M17.3333 144.667L17.6667 145.333L17.3333 144.667M16 147L6 153L6 154C20.3426 151.337 42.1085 149.975 56 154C53.1946 139.973 37.9759 146.008 29 149C24.9627 150.346 15.2681 149.928 16 147z"/>
<path style="fill:#e0b062; stroke:none;" d="M76 144L74 153C77.96 151.683 79.0126 148.893 80 145L76 144z"/>
<path style="fill:#ba8e46; stroke:none;" d="M160 144L158 147L160 144z"/>
<path style="fill:#f8e0c2; stroke:none;" d="M8 145L9 146L8 145z"/>
<path style="fill:#ba8e46; stroke:none;" d="M16 146L17 147L16 146z"/>
<path style="fill:#f8e0c2; stroke:none;" d="M52.3333 146.667L52.6667 147.333L52.3333 146.667z"/>
<path style="fill:#95652c; stroke:none;" d="M79 151L80 152L79 151M144 152L144 153L147 154L147 151L144 152z"/>
<path style="fill:#e0b062; stroke:none;" d="M159 151L160 152L159 151M213 153L213 154L225 155C223.236 149.737 217.335 151.683 213 153M152.333 152.667L152.667 153.333L152.333 152.667M164 158L176 153C171.538 151.681 166.277 154.062 164 158z"/>
<path style="fill:#ba8e46; stroke:none;" d="M0 155L0 156L4 155L0 155z"/>
<path style="fill:#95652c; stroke:none;" d="M72 157L76 155L72 157z"/>
<path style="fill:#e0b062; stroke:none;" d="M160.667 154.333L161.333 154.667L160.667 154.333z"/>
<path style="fill:#95652c; stroke:none;" d="M143 155L144 156L143 155z"/>
<path style="fill:#f8e0c2; stroke:none;" d="M0 157L0 180L147 180C141.071 171.857 135.491 175.745 127 175.302C119.556 174.915 112.109 172.513 104.424 172.112C94.5587 171.596 84.5944 167.67 75 165.626C51.2518 160.565 24.3386 154.945 0 157z"/>
<path style="fill:#95652c; stroke:none;" d="M144 156C141.284 164.803 126.968 166.658 119 167L119 168L150 168L151 167L151 165L150 164L142 164L142 163L151 164L152 164L152 159L144 156z"/>
<path style="fill:#f8e0c2; stroke:none;" d="M114 157L105 163L117 164L116 157L114 157z"/>
<path style="fill:#e0b062; stroke:none;" d="M168 158L167 159L168 162L160 160L160 165L166 165L166 166L164 168L169 166L170 159L168 158M158 159L159 160L158 159M162 159L163 160L162 159M152 160L152 162L154 162L154 160L152 160z"/>
<path style="fill:#47260f; stroke:none;" d="M142 163L142 164L151 165L151 162L142 163z"/>
<path style="fill:#ba8e46; stroke:none;" d="M151 164L150 168L109 167L109 168L128 169.211L153 173L151 164M120 166L120 167L125 167L120 166z"/>
<path style="fill:#e0b062; stroke:none;" d="M168 168L169 172L170 169L168 168z"/>
<path style="fill:#ba8e46; stroke:none;" d="M141 172L142 173L141 172M160.667 177.333L161.333 177.667L160.667 177.333M163 178L163 179L170 180L163 178z"/>
<path style="fill:#e0b062; stroke:none;" d="M174 179L174 180L179 180L174 179z"/>
</svg>
